<?xml version="1.0" encoding="UTF-8"?>
<!DOCTYPE svg PUBLIC "-//W3C//DTD SVG 1.1//EN" "http://www.w3.org/Graphics/SVG/1.1/DTD/svg11.dtd">
<svg xmlns="http://www.w3.org/2000/svg" version="1.1" width="235px" height="300px" style="shape-rendering:geometricPrecision; text-rendering:geometricPrecision; image-rendering:optimizeQuality; fill-rule:evenodd; clip-rule:evenodd" xmlns:xlink="http://www.w3.org/1999/xlink">
<g><path style="opacity:1" fill="#222222" d="M 210.5,-0.5 C 214.167,-0.5 217.833,-0.5 221.5,-0.5C 221.167,0.166667 220.833,0.833333 220.5,1.5C 219.167,1.5 217.833,1.5 216.5,1.5C 216.103,0.474981 215.437,0.308314 214.5,1C 211.146,6.09881 209.813,5.59881 210.5,-0.5 Z"/></g>
<g><path style="opacity:0.878" fill="#6a6a6a" d="M 0.5,-0.5 C 1.83333,-0.5 3.16667,-0.5 4.5,-0.5C 4.13651,2.56274 3.46985,5.56274 2.5,8.5C 2.83333,9.5 3.16667,10.5 3.5,11.5C 13.1289,13.9843 22.7956,13.8176 32.5,11C 41.7359,7.71524 50.7359,3.88191 59.5,-0.5C 61.1667,-0.5 62.8333,-0.5 64.5,-0.5C 46.5807,9.69305 27.2473,15.6931 6.5,17.5C 4.0759,16.9789 1.74257,16.3123 -0.5,15.5C -0.5,11.5 -0.5,7.5 -0.5,3.5C 0.434475,2.43236 0.767809,1.09903 0.5,-0.5 Z"/></g>
<g><path style="opacity:1" fill="#202020" d="M 4.5,-0.5 C 8.83333,-0.5 13.1667,-0.5 17.5,-0.5C 17.0689,3.31237 18.0689,3.31237 20.5,-0.5C 33.5,-0.5 46.5,-0.5 59.5,-0.5C 50.7359,3.88191 41.7359,7.71524 32.5,11C 22.7956,13.8176 13.1289,13.9843 3.5,11.5C 3.16667,10.5 2.83333,9.5 2.5,8.5C 3.46985,5.56274 4.13651,2.56274 4.5,-0.5 Z"/></g>
<g><path style="opacity:1" fill="#898989" d="M 17.5,-0.5 C 18.5,-0.5 19.5,-0.5 20.5,-0.5C 18.0689,3.31237 17.0689,3.31237 17.5,-0.5 Z"/></g>
<g><path style="opacity:0.935" fill="#656565" d="M 115.5,-0.5 C 116.5,-0.5 117.5,-0.5 118.5,-0.5C 106.079,21.0376 96.9122,44.0376 91,68.5C 90.5008,73.1548 90.3342,77.8215 90.5,82.5C 89.8342,86.8205 89.5009,91.3205 89.5,96C 89.5574,101.082 90.2241,105.915 91.5,110.5C 91.2684,118.262 91.9351,125.928 93.5,133.5C 93.7571,137.171 94.7571,140.505 96.5,143.5C 97.6297,147.556 98.9631,151.556 100.5,155.5C 101.101,147.742 102.268,140.075 104,132.5C 103.469,140.815 103.136,149.149 103,157.5C 103.927,151.078 105.261,144.745 107,138.5C 107.889,137.112 108.389,137.278 108.5,139C 105.833,148.675 104.999,158.509 106,168.5C 106.956,169.579 107.789,170.745 108.5,172C 109.5,172.667 110.5,172.667 111.5,172C 113.807,168.884 115.14,165.384 115.5,161.5C 118.239,156.08 120.572,150.413 122.5,144.5C 124.046,142.118 124.713,139.451 124.5,136.5C 125.137,132.693 126.137,128.86 127.5,125C 126.576,123.189 125.743,123.355 125,125.5C 123.798,123.323 123.298,120.989 123.5,118.5C 122.853,121.523 122.52,124.523 122.5,127.5C 119.764,118.321 117.597,108.988 116,99.5C 115.333,90.8333 115.333,82.1667 116,73.5C 119.7,56.6999 124.034,40.0332 129,23.5C 130.318,20.1991 132.152,17.1991 134.5,14.5C 135.94,22.1466 137.273,21.8132 138.5,13.5C 137.833,12.8333 137.167,12.1667 136.5,11.5C 137.986,7.19444 139.986,3.19444 142.5,-0.5C 144.167,-0.5 145.833,-0.5 147.5,-0.5C 147.5,1.16667 147.5,2.83333 147.5,4.5C 146.5,4.5 145.5,4.5 144.5,4.5C 143.634,14.4726 143.301,24.4726 143.5,34.5C 144.5,34.5 145.5,34.5 146.5,34.5C 146.609,35.1163 146.443,38.4497 146,44.5C 148.144,38.6257 149.978,32.6257 151.5,26.5C 152.5,25.1667 153.5,23.8333 154.5,22.5C 153.653,25.1595 153.153,27.8262 153,30.5C 158.004,23.6553 160.504,15.9887 160.5,7.5C 161.5,7.5 162.5,7.5 163.5,7.5C 163.5,4.83333 163.5,2.16667 163.5,-0.5C 164.5,-0.5 165.5,-0.5 166.5,-0.5C 165.65,1.49439 165.15,3.49439 165,5.5C 166.947,3.93662 168.114,1.93662 168.5,-0.5C 169.5,-0.5 170.5,-0.5 171.5,-0.5C 163.011,14.148 155.844,29.4813 150,45.5C 147.031,54.6984 145.031,64.0317 144,73.5C 159.922,59.9578 173.255,44.2912 184,26.5C 187.938,17.5118 191.771,8.51182 195.5,-0.5C 200.5,-0.5 205.5,-0.5 210.5,-0.5C 209.813,5.59881 211.146,6.09881 214.5,1C 215.437,0.308314 216.103,0.474981 216.5,1.5C 212.39,4.43678 209.223,8.10344 207,12.5C 205.617,16.9342 203.95,21.2676 202,25.5C 201.383,22.9649 201.883,20.6316 203.5,18.5C 202.833,18.1667 202.167,17.8333 201.5,17.5C 202.38,15.5708 203.38,13.7374 204.5,12C 203.352,10.274 202.185,10.4407 201,12.5C 197.999,17.1499 196.166,22.1499 195.5,27.5C 194.5,27.5 193.5,27.5 192.5,27.5C 189.612,50.4734 193.445,72.1401 204,92.5C 206.713,96.0916 209.547,99.5916 212.5,103C 213.483,103.591 214.15,103.257 214.5,102C 213.586,100.594 212.92,99.0936 212.5,97.5C 213.898,99.1088 215.565,99.9421 217.5,100C 218.453,95.8726 220.12,92.0393 222.5,88.5C 222.43,87.2284 222.097,86.0617 221.5,85C 222.744,84.5439 223.577,85.0439 224,86.5C 224.708,85.6195 225.542,84.9528 226.5,84.5C 227.609,84.4431 228.609,84.1098 229.5,83.5C 229.238,84.9778 229.571,86.3112 230.5,87.5C 232.216,86.4513 233.549,85.118 234.5,83.5C 234.5,85.5 234.5,87.5 234.5,89.5C 231.148,91.4582 229.648,94.4582 230,98.5C 229.667,97.8333 229.333,97.1667 229,96.5C 225.188,99.8427 225.688,101.843 230.5,102.5C 230.351,101.448 230.517,100.448 231,99.5C 231.333,99.8333 231.667,100.167 232,100.5C 232.377,99.0577 233.21,98.0577 234.5,97.5C 234.5,98.1667 234.5,98.8333 234.5,99.5C 233.188,101.696 232.021,104.03 231,106.5C 227.885,104.353 225.052,101.853 222.5,99C 224.585,97.4736 224.585,95.6402 222.5,93.5C 221.55,96.0799 220.217,98.9132 218.5,102C 221.001,103.845 223.667,105.512 226.5,107C 223.243,106.466 220.076,105.299 217,103.5C 217.893,106.436 219.726,108.936 222.5,111C 226.202,113.354 230.202,114.854 234.5,115.5C 234.5,116.5 234.5,117.5 234.5,118.5C 232.188,120.367 229.521,120.867 226.5,120C 223.659,118.414 220.993,116.58 218.5,114.5C 218.903,149.496 214.903,183.83 206.5,217.5C 207.469,210.189 207.636,202.856 207,195.5C 203.438,186.044 199.605,176.711 195.5,167.5C 194.808,168.025 194.308,168.692 194,169.5C 193.667,158.5 193.333,147.5 193,136.5C 192.64,134.579 191.806,132.912 190.5,131.5C 191.325,130.614 192.325,130.281 193.5,130.5C 194.341,125.983 193.008,122.317 189.5,119.5C 190.355,118.707 191.189,119.04 192,120.5C 192.261,114.189 192.428,108.022 192.5,102C 190.292,94.095 188.459,93.9284 187,101.5C 186,100.167 185,100.167 184,101.5C 183.508,100.451 183.674,99.451 184.5,98.5C 184.154,97.3044 183.654,97.3044 183,98.5C 181.353,102.422 180.353,106.422 180,110.5C 181.247,108.119 181.58,108.453 181,111.5C 178.477,115.888 175.977,120.222 173.5,124.5C 172.833,124.5 172.5,124.167 172.5,123.5C 175.579,115.658 178.412,107.658 181,99.5C 181.667,97.5 181.667,95.5 181,93.5C 177.667,89.5 174.333,85.5 171,81.5C 170.223,84.4294 170.39,87.2628 171.5,90C 169.086,95.1965 168.086,100.696 168.5,106.5C 167.504,121.658 167.17,136.991 167.5,152.5C 167.167,152.5 166.833,152.5 166.5,152.5C 165.42,146.195 165.253,139.862 166,133.5C 158.016,149.469 150.016,165.469 142,181.5C 139.963,183.706 137.797,185.706 135.5,187.5C 135.631,186.761 135.464,186.094 135,185.5C 134.073,188.706 132.907,189.039 131.5,186.5C 131.932,185.29 132.599,184.29 133.5,183.5C 134.524,181.488 136.024,179.822 138,178.5C 138.483,177.552 138.649,176.552 138.5,175.5C 139.873,175.657 141.207,175.49 142.5,175C 140.422,173.73 140.088,172.23 141.5,170.5C 141.351,171.552 141.517,172.552 142,173.5C 143.677,171.852 143.844,170.185 142.5,168.5C 142.56,167.957 142.893,167.624 143.5,167.5C 144.281,168.729 144.781,170.062 145,171.5C 145.269,168.648 146.103,165.982 147.5,163.5C 147.376,162.893 147.043,162.56 146.5,162.5C 146.715,160.821 146.048,159.821 144.5,159.5C 143.957,159.44 143.624,159.107 143.5,158.5C 144.05,156.343 144.717,154.343 145.5,152.5C 145.34,154.199 145.506,155.866 146,157.5C 148.496,153.51 149.496,149.177 149,144.5C 148.617,145.056 148.117,145.389 147.5,145.5C 147.027,144.094 146.027,143.427 144.5,143.5C 143.18,144.942 141.514,145.608 139.5,145.5C 136.618,147.107 135.618,149.274 136.5,152C 136.342,154.149 135.508,155.983 134,157.5C 133.349,155.765 133.515,154.098 134.5,152.5C 134.192,151.692 133.692,151.025 133,150.5C 132.215,152.286 131.049,153.786 129.5,155C 130.167,155.333 130.833,155.667 131.5,156C 131.272,156.399 130.938,156.565 130.5,156.5C 127.658,158.007 125.991,160.34 125.5,163.5C 124.833,163.833 124.167,164.167 123.5,164.5C 123.19,163.262 122.69,163.262 122,164.5C 119.602,168.057 117.435,171.723 115.5,175.5C 116.002,176.521 116.668,176.688 117.5,176C 121.137,168.729 122.637,169.229 122,177.5C 122.383,176.944 122.883,176.611 123.5,176.5C 124.443,178.001 124.109,179.335 122.5,180.5C 122.103,179.475 121.437,179.308 120.5,180C 119.789,181.255 118.956,182.421 118,183.5C 117.235,185.066 117.402,186.399 118.5,187.5C 119.686,188.961 119.686,190.295 118.5,191.5C 118.631,190.761 118.464,190.094 118,189.5C 117.292,190.381 116.458,191.047 115.5,191.5C 115.217,190.711 114.717,190.044 114,189.5C 113.385,191.116 112.385,192.449 111,193.5C 110.536,192.906 110.369,192.239 110.5,191.5C 110.649,190.448 110.483,189.448 110,188.5C 109.292,189.381 108.458,190.047 107.5,190.5C 107.167,190.5 106.833,190.5 106.5,190.5C 106.631,189.761 106.464,189.094 106,188.5C 105.292,189.381 104.458,190.047 103.5,190.5C 102.636,190.298 101.636,189.964 100.5,189.5C 102.211,187.76 103.044,185.76 103,183.5C 102.167,184.5 101.333,185.5 100.5,186.5C 100.24,185.095 99.9066,183.762 99.5,182.5C 101.117,179.924 100.783,178.924 98.5,179.5C 98.6068,177.621 98.1068,177.288 97,178.5C 96.1307,181.742 94.6307,184.575 92.5,187C 93.056,187.383 93.3893,187.883 93.5,188.5C 93.2155,190.415 93.5489,192.081 94.5,193.5C 95.3764,193.369 96.0431,193.702 96.5,194.5C 95.6086,195.59 94.6086,195.59 93.5,194.5C 92.7189,193.271 92.2189,191.938 92,190.5C 90.7586,192.548 90.5919,194.548 91.5,196.5C 88.9672,200.574 88.3005,200.408 89.5,196C 88.9896,194.174 88.1562,194.007 87,195.5C 86.2571,197.441 86.4238,199.274 87.5,201C 85.6885,202.041 85.3552,203.207 86.5,204.5C 87.0414,207.652 86.0414,210.152 83.5,212C 84.448,212.483 85.448,212.649 86.5,212.5C 82.8561,213.405 81.6894,215.738 83,219.5C 84.6617,216.423 87.1617,214.423 90.5,213.5C 88.2129,215.614 86.5463,218.114 85.5,221C 85.6667,221.833 85.8333,222.667 86,223.5C 87.3712,221.959 88.8712,220.625 90.5,219.5C 90.5,219.833 90.5,220.167 90.5,220.5C 89.1618,222.67 87.3284,224.336 85,225.5C 84.6948,227.557 84.6948,229.557 85,231.5C 83.2835,232.552 82.2835,231.886 82,229.5C 79.6192,232.55 78.7859,235.883 79.5,239.5C 81.1856,238.143 82.8523,236.81 84.5,235.5C 84.8417,236.338 85.5084,236.672 86.5,236.5C 83.4653,238.017 80.7987,240.183 78.5,243C 83.5604,240.875 88.3938,238.041 93,234.5C 93.6917,233.563 93.525,232.897 92.5,232.5C 90.5759,232.289 90.2426,231.623 91.5,230.5C 91.4346,230.938 91.6012,231.272 92,231.5C 92.7083,230.619 93.5416,229.953 94.5,229.5C 94.4346,229.938 94.6012,230.272 95,230.5C 97.3468,227.579 99.8468,225.579 102.5,224.5C 101.352,226.149 100.019,227.649 98.5,229C 98.7284,229.399 99.0618,229.565 99.5,229.5C 97.176,232.138 95.3426,235.138 94,238.5C 87.8009,245.373 80.6342,250.706 72.5,254.5C 70.4867,252.826 68.8201,250.826 67.5,248.5C 71.5689,226.756 76.0689,205.089 81,183.5C 83.8553,174.129 87.522,165.129 92,156.5C 92.6667,152.5 92.6667,148.5 92,144.5C 80.6259,105.656 82.9593,67.6559 99,30.5C 104.016,19.7956 109.516,9.46222 115.5,-0.5 Z"/></g>
<g><path style="opacity:1" fill="#252525" d="M 147.5,-0.5 C 152.833,-0.5 158.167,-0.5 163.5,-0.5C 163.5,2.16667 163.5,4.83333 163.5,7.5C 162.5,7.5 161.5,7.5 160.5,7.5C 160.504,15.9887 158.004,23.6553 153,30.5C 153.153,27.8262 153.653,25.1595 154.5,22.5C 153.5,23.8333 152.5,25.1667 151.5,26.5C 149.978,32.6257 148.144,38.6257 146,44.5C 146.443,38.4497 146.609,35.1163 146.5,34.5C 145.5,34.5 144.5,34.5 143.5,34.5C 143.301,24.4726 143.634,14.4726 144.5,4.5C 145.5,4.5 146.5,4.5 147.5,4.5C 147.5,2.83333 147.5,1.16667 147.5,-0.5 Z"/></g>
<g><path style="opacity:1" fill="#2d2d2d" d="M 166.5,-0.5 C 167.167,-0.5 167.833,-0.5 168.5,-0.5C 168.114,1.93662 166.947,3.93662 165,5.5C 165.15,3.49439 165.65,1.49439 166.5,-0.5 Z"/></g>
<g><path style="opacity:1" fill="#646464" d="M 221.5,-0.5 C 222.5,-0.5 223.5,-0.5 224.5,-0.5C 224.36,1.12377 225.027,2.29044 226.5,3C 225.446,6.25829 223.446,7.09162 220.5,5.5C 221.167,4.5 221.833,3.5 222.5,2.5C 222.043,1.70245 221.376,1.36912 220.5,1.5C 220.833,0.833333 221.167,0.166667 221.5,-0.5 Z"/></g>
<g><path style="opacity:1" fill="#222222" d="M 207.5,3.5 C 210.01,5.8961 209.677,8.22944 206.5,10.5C 205.154,7.90043 205.488,5.5671 207.5,3.5 Z"/></g>
<g><path style="opacity:1" fill="#171717" d="M 224.5,-0.5 C 225.5,-0.5 226.5,-0.5 227.5,-0.5C 228.014,1.51162 228.18,3.51162 228,5.5C 227.29,6.97326 226.124,7.63993 224.5,7.5C 224.487,14.2335 225.487,14.7335 227.5,9C 228.744,8.54392 229.577,9.04392 230,10.5C 230.116,7.06838 231.283,4.06838 233.5,1.5C 233.333,1.16667 233.167,0.833333 233,0.5C 230.76,3.2932 229.26,2.95987 228.5,-0.5C 230.5,-0.5 232.5,-0.5 234.5,-0.5C 234.5,4.16667 234.5,8.83333 234.5,13.5C 232.092,14.3148 231.259,15.9814 232,18.5C 232.852,17.4293 233.685,16.4293 234.5,15.5C 234.5,34.8333 234.5,54.1667 234.5,73.5C 232.738,74.2623 231.738,75.5956 231.5,77.5C 229.6,79.6195 227.934,81.9528 226.5,84.5C 225.542,84.9528 224.708,85.6195 224,86.5C 223.577,85.0439 222.744,84.5439 221.5,85C 222.097,86.0617 222.43,87.2284 222.5,88.5C 220.12,92.0393 218.453,95.8726 217.5,100C 215.565,99.9421 213.898,99.1088 212.5,97.5C 212.92,99.0936 213.586,100.594 214.5,102C 214.15,103.257 213.483,103.591 212.5,103C 209.547,99.5916 206.713,96.0916 204,92.5C 193.445,72.1401 189.612,50.4734 192.5,27.5C 193.5,27.5 194.5,27.5 195.5,27.5C 196.166,22.1499 197.999,17.1499 201,12.5C 202.185,10.4407 203.352,10.274 204.5,12C 203.38,13.7374 202.38,15.5708 201.5,17.5C 202.167,17.8333 202.833,18.1667 203.5,18.5C 201.883,20.6316 201.383,22.9649 202,25.5C 203.95,21.2676 205.617,16.9342 207,12.5C 209.223,8.10344 212.39,4.43678 216.5,1.5C 216.185,3.22586 216.019,4.89253 216,6.5C 217.707,4.96252 219.207,3.29585 220.5,1.5C 221.376,1.36912 222.043,1.70245 222.5,2.5C 221.833,3.5 221.167,4.5 220.5,5.5C 223.446,7.09162 225.446,6.25829 226.5,3C 225.027,2.29044 224.36,1.12377 224.5,-0.5 Z"/></g>
<g><path style="opacity:1" fill="#929292" d="M 213.5,8.5 C 214.713,9.49711 214.546,10.4971 213,11.5C 212.53,10.4232 212.697,9.42317 213.5,8.5 Z"/></g>
<g><path style="opacity:1" fill="#6d6d6d" d="M 227.5,-0.5 C 227.833,-0.5 228.167,-0.5 228.5,-0.5C 229.26,2.95987 230.76,3.2932 233,0.5C 233.167,0.833333 233.333,1.16667 233.5,1.5C 231.283,4.06838 230.116,7.06838 230,10.5C 229.577,9.04392 228.744,8.54392 227.5,9C 225.487,14.7335 224.487,14.2335 224.5,7.5C 226.124,7.63993 227.29,6.97326 228,5.5C 228.18,3.51162 228.014,1.51162 227.5,-0.5 Z"/></g>
<g><path style="opacity:1" fill="#969696" d="M 216.5,1.5 C 217.833,1.5 219.167,1.5 220.5,1.5C 219.207,3.29585 217.707,4.96252 216,6.5C 216.019,4.89253 216.185,3.22586 216.5,1.5 Z"/></g>
<g><path style="opacity:1" fill="#9c9c9c" d="M 234.5,13.5 C 234.5,14.1667 234.5,14.8333 234.5,15.5C 233.685,16.4293 232.852,17.4293 232,18.5C 231.259,15.9814 232.092,14.3148 234.5,13.5 Z"/></g>
<g><path style="opacity:1" fill="#242424" d="M 193.5,9.5 C 195.344,10.2039 195.844,11.5372 195,13.5C 193.749,16.5812 191.916,19.2478 189.5,21.5C 189.167,21 188.833,20.5 188.5,20C 190.571,16.6911 192.238,13.1911 193.5,9.5 Z"/></g>
<g><path style="opacity:1" fill="#737373" d="M 154.5,22.5 C 155.176,18.8133 156.676,15.4799 159,12.5C 158.335,16.1662 156.835,19.4995 154.5,22.5 Z"/></g>
<g><path style="opacity:1" fill="#797979" d="M 222.5,15.5 C 223.776,16.3864 223.776,17.3864 222.5,18.5C 221.438,17.5754 221.438,16.5754 222.5,15.5 Z"/></g>
<g><path style="opacity:1" fill="#212121" d="M 118.5,-0.5 C 120.833,-0.5 123.167,-0.5 125.5,-0.5C 123.539,1.96348 121.372,4.29681 119,6.5C 118.333,7.16667 118.333,7.83333 119,8.5C 122.038,5.63064 124.871,2.63064 127.5,-0.5C 132.5,-0.5 137.5,-0.5 142.5,-0.5C 139.986,3.19444 137.986,7.19444 136.5,11.5C 137.167,12.1667 137.833,12.8333 138.5,13.5C 137.273,21.8132 135.94,22.1466 134.5,14.5C 132.152,17.1991 130.318,20.1991 129,23.5C 124.034,40.0332 119.7,56.6999 116,73.5C 115.333,82.1667 115.333,90.8333 116,99.5C 117.597,108.988 119.764,118.321 122.5,127.5C 124.044,130.248 124.71,133.248 124.5,136.5C 124.713,139.451 124.046,142.118 122.5,144.5C 121.551,135.476 119.051,126.809 115,118.5C 114.748,120.931 115.248,123.265 116.5,125.5C 116.154,126.696 115.654,126.696 115,125.5C 115.202,128.228 115.036,130.895 114.5,133.5C 116.717,136.058 117.883,139.058 118,142.5C 118.667,146.5 118.667,150.5 118,154.5C 117.018,149.874 116.184,145.208 115.5,140.5C 114.667,141.5 113.833,142.5 113,143.5C 112.111,150.826 111.778,158.159 112,165.5C 112.615,160.094 113.615,154.761 115,149.5C 115.499,153.486 115.666,157.486 115.5,161.5C 115.14,165.384 113.807,168.884 111.5,172C 110.5,172.667 109.5,172.667 108.5,172C 107.789,170.745 106.956,169.579 106,168.5C 104.999,158.509 105.833,148.675 108.5,139C 108.389,137.278 107.889,137.112 107,138.5C 105.261,144.745 103.927,151.078 103,157.5C 103.136,149.149 103.469,140.815 104,132.5C 102.268,140.075 101.101,147.742 100.5,155.5C 98.9631,151.556 97.6297,147.556 96.5,143.5C 96.9046,142.45 97.5712,142.45 98.5,143.5C 98.8333,142.833 99.1667,142.167 99.5,141.5C 99.1485,140.214 98.4818,139.381 97.5,139C 97.8964,137.103 98.8964,135.603 100.5,134.5C 99.675,133.614 98.675,133.281 97.5,133.5C 98.0844,129.768 98.5844,126.102 99,122.5C 98.3333,123.167 97.6667,123.833 97,124.5C 96.4412,128.186 95.7745,131.853 95,135.5C 94.7216,134.584 94.2216,133.918 93.5,133.5C 91.9351,125.928 91.2684,118.262 91.5,110.5C 92.5735,109.749 92.7401,108.749 92,107.5C 91.6667,107.833 91.3333,108.167 91,108.5C 90.6768,99.2825 92.5102,90.4492 96.5,82C 96.3893,80.2785 95.8893,80.1118 95,81.5C 93.6667,84.8333 92.3333,88.1667 91,91.5C 90.502,88.5184 90.3354,85.5184 90.5,82.5C 90.3342,77.8215 90.5008,73.1548 91,68.5C 96.9122,44.0376 106.079,21.0376 118.5,-0.5 Z"/></g>
<g><path style="opacity:1" fill="#585858" d="M 116.5,14.5 C 117.239,14.369 117.906,14.5357 118.5,15C 115.667,17.8333 112.833,20.6667 110,23.5C 109.333,22.8333 109.333,22.1667 110,21.5C 112.372,19.2968 114.539,16.9635 116.5,14.5 Z"/></g>
<g><path style="opacity:1" fill="#878787" d="M 120.5,19.5 C 121.75,17.0676 123.25,14.7343 125,12.5C 124.999,15.6907 123.499,18.024 120.5,19.5 Z"/></g>
<g><path style="opacity:1" fill="#656565" d="M 125.5,-0.5 C 126.167,-0.5 126.833,-0.5 127.5,-0.5C 124.871,2.63064 122.038,5.63064 119,8.5C 118.333,7.83333 118.333,7.16667 119,6.5C 121.372,4.29681 123.539,1.96348 125.5,-0.5 Z"/></g>
<g><path style="opacity:1" fill="#818181" d="M 132.5,0.5 C 134.984,2.02773 134.818,3.69439 132,5.5C 132.019,3.89253 132.185,2.22586 132.5,0.5 Z"/></g>
<g><path style="opacity:1" fill="#707070" d="M 129.5,15.5 C 130.043,15.56 130.376,15.8933 130.5,16.5C 127.182,24.1074 124.015,31.7741 121,39.5C 120.111,40.8882 119.611,40.7215 119.5,39C 122.435,32.4809 121.601,31.9809 117,37.5C 115.254,41.3267 113.254,44.9934 111,48.5C 115.058,36.3897 121.225,25.3897 129.5,15.5 Z"/></g>
<g><path style="opacity:1" fill="#696969" d="M 151.5,26.5 C 150.503,26.5299 149.836,26.0299 149.5,25C 151.063,19.3922 151.729,19.8922 151.5,26.5 Z"/></g>
<g><path style="opacity:1" fill="#898989" d="M 120.5,19.5 C 119.758,21.4258 118.758,23.2591 117.5,25C 116.5,25.6667 115.5,25.6667 114.5,25C 116.37,22.9604 118.37,21.1271 120.5,19.5 Z"/></g>
<g><path style="opacity:1" fill="#747474" d="M 110.5,29.5 C 111.043,29.56 111.376,29.8933 111.5,30.5C 106.889,35.6185 106.556,35.2851 110.5,29.5 Z"/></g>
<g><path style="opacity:1" fill="#424242" d="M 133.5,31.5 C 132.834,35.0208 132.167,38.6875 131.5,42.5C 130.506,37.544 130.173,32.544 130.5,27.5C 131.222,27.0825 131.722,26.4158 132,25.5C 133.319,27.2495 133.819,29.2495 133.5,31.5 Z"/></g>
<g><path style="opacity:1" fill="#252525" d="M 138.5,27.5 C 140.625,31.4382 141.625,35.7715 141.5,40.5C 141.547,43.2948 141.047,45.9615 140,48.5C 138.616,41.5888 138.116,34.5888 138.5,27.5 Z"/></g>
<g><path style="opacity:1" fill="#222222" d="M 188.5,44.5 C 187.741,42.5642 186.741,40.7309 185.5,39C 187.628,37.3687 188.961,35.202 189.5,32.5C 190.169,35.9299 190.503,39.2633 190.5,42.5C 190.253,43.7133 189.586,44.38 188.5,44.5 Z"/></g>
<g><path style="opacity:1" fill="#222222" d="M 130.5,27.5 C 130.173,32.544 130.506,37.544 131.5,42.5C 132.167,38.6875 132.834,35.0208 133.5,31.5C 133.176,35.5546 133.509,39.5546 134.5,43.5C 135.425,42.3595 136.259,42.3595 137,43.5C 137.348,59.1055 135.348,74.4388 131,89.5C 130.333,87.5 129.667,85.5 129,83.5C 128.143,86.5505 128.81,89.2172 131,91.5C 131.667,93.5 131.667,95.5 131,97.5C 128.215,91.3766 125.881,85.0432 124,78.5C 123.333,80.1667 123.333,81.8333 124,83.5C 125.746,89.5669 127.579,95.5669 129.5,101.5C 129.333,102.833 129.167,104.167 129,105.5C 128.051,103.907 126.885,102.574 125.5,101.5C 126.37,104.378 127.703,107.045 129.5,109.5C 128.166,113.5 126.833,117.5 125.5,121.5C 124.824,120.398 124.158,119.398 123.5,118.5C 123.66,116.801 123.494,115.134 123,113.5C 121.844,114.993 121.01,114.826 120.5,113C 120.611,111.278 121.111,111.112 122,112.5C 122.353,111.328 122.187,110.162 121.5,109C 122.167,108.333 122.833,107.667 123.5,107C 120.941,100.53 119.274,93.8636 118.5,87C 119.807,78.3718 121.307,70.5384 123,63.5C 124.889,67.5636 125.889,71.8969 126,76.5C 126.667,72.8333 126.667,69.1667 126,65.5C 124.659,61.2903 123.826,56.957 123.5,52.5C 123.365,50.192 124.031,48.192 125.5,46.5C 126.281,47.7287 126.781,49.062 127,50.5C 127.839,47.8604 127.339,45.5271 125.5,43.5C 128.04,39.3343 129.206,34.6676 129,29.5C 129.278,28.5842 129.778,27.9175 130.5,27.5 Z"/></g>
<g><path style="opacity:1" fill="#464646" d="M 188.5,44.5 C 188.539,45.5832 188.873,46.5832 189.5,47.5C 186.833,48.8333 186.833,50.1667 189.5,51.5C 189.145,52.5223 188.478,53.189 187.5,53.5C 186.236,51.7299 184.736,50.0632 183,48.5C 182.833,49.1667 182.667,49.8333 182.5,50.5C 183.389,53.3888 184.722,56.0554 186.5,58.5C 186.333,58.8333 186.167,59.1667 186,59.5C 185,58.1667 184,56.8333 183,55.5C 182.024,59.327 182.857,62.6604 185.5,65.5C 185.167,65.5 184.833,65.5 184.5,65.5C 182.75,64.3406 181.75,62.674 181.5,60.5C 181.145,58.1103 180.478,55.777 179.5,53.5C 180.731,50.0394 182.231,46.7061 184,43.5C 185.309,45.8912 186.309,45.8912 187,43.5C 187.383,44.056 187.883,44.3893 188.5,44.5 Z"/></g>
<g><path style="opacity:1" fill="#575757" d="M 215.5,44.5 C 216.573,45.2506 216.74,46.2506 216,47.5C 214.254,51.3267 212.254,54.9934 210,58.5C 211.501,53.8106 213.335,49.1439 215.5,44.5 Z"/></g>
<g><path style="opacity:1" fill="#212121" d="M 187.5,53.5 C 188.511,57.1122 188.678,60.7789 188,64.5C 187.329,65.2524 186.496,65.5858 185.5,65.5C 182.857,62.6604 182.024,59.327 183,55.5C 184,56.8333 185,58.1667 186,59.5C 186.167,59.1667 186.333,58.8333 186.5,58.5C 184.722,56.0554 183.389,53.3888 182.5,50.5C 182.667,49.8333 182.833,49.1667 183,48.5C 184.736,50.0632 186.236,51.7299 187.5,53.5 Z"/></g>
<g><path style="opacity:1" fill="#2f2f2f" d="M 166.5,58.5 C 165.542,58.9528 164.708,59.6195 164,60.5C 164.994,56.4616 167.327,53.1282 171,50.5C 169.831,53.2151 168.331,55.8817 166.5,58.5 Z"/></g>
<g><path style="opacity:1" fill="#525252" d="M 229.5,52.5 C 230.573,53.2506 230.74,54.2506 230,55.5C 228.065,58.3707 226.399,61.3707 225,64.5C 225.612,60.2562 227.112,56.2562 229.5,52.5 Z"/></g>
<g><path style="opacity:1" fill="#707070" d="M 197.5,59.5 C 196.566,60.5676 196.232,61.901 196.5,63.5C 195.532,61.3926 195.198,59.0593 195.5,56.5C 196.552,56.3505 197.552,56.5172 198.5,57C 197.748,57.6708 197.414,58.5041 197.5,59.5 Z"/></g>
<g><path style="opacity:1" fill="#626262" d="M 105.5,55.5 C 106.043,55.56 106.376,55.8933 106.5,56.5C 103.921,61.9918 101.088,67.3252 98,72.5C 99.9021,66.6845 102.402,61.0178 105.5,55.5 Z"/></g>
<g><path style="opacity:1" fill="#282828" d="M 166.5,58.5 C 167.363,57.537 168.03,57.537 168.5,58.5C 165.275,64.23 161.109,69.23 156,73.5C 155.333,72.8333 155.333,72.1667 156,71.5C 159.737,67.2733 163.237,62.94 166.5,58.5 Z"/></g>
<g><path style="opacity:1" fill="#e0e0e0" d="M 226.5,69.5 C 226.517,67.9719 227.184,67.4719 228.5,68C 227.956,68.7172 227.289,69.2172 226.5,69.5 Z"/></g>
<g><path style="opacity:1" fill="#a9a9a9" d="M 226.5,69.5 C 226.573,71.0269 225.906,72.0269 224.5,72.5C 224.427,70.9731 225.094,69.9731 226.5,69.5 Z"/></g>
<g><path style="opacity:1" fill="#212121" d="M 140.5,49.5 C 141.161,50.7175 141.828,52.0508 142.5,53.5C 142.669,52.6034 143.002,51.6034 143.5,50.5C 143.833,51.3333 144.167,52.1667 144.5,53C 142.98,56.6121 142.146,60.4454 142,64.5C 140.139,66.8877 138.806,69.5544 138,72.5C 137.64,79.4111 136.306,86.0777 134,92.5C 133.333,89.1667 133.333,85.8333 134,82.5C 136.392,71.4672 138.559,60.4672 140.5,49.5 Z"/></g>
<g><path style="opacity:1" fill="#777777" d="M 210.5,80.5 C 210.5,80.1667 210.5,79.8333 210.5,79.5C 212.388,75.3944 214.554,71.3944 217,67.5C 215.931,72.3054 213.764,76.6387 210.5,80.5 Z"/></g>
<g><path style="opacity:1" fill="#969696" d="M 234.5,73.5 C 234.5,74.5 234.5,75.5 234.5,76.5C 233.391,76.5569 232.391,76.8902 231.5,77.5C 231.738,75.5956 232.738,74.2623 234.5,73.5 Z"/></g>
<g><path style="opacity:1" fill="#828282" d="M 197.5,59.5 C 197.222,61.3464 197.889,62.6798 199.5,63.5C 204.898,57.9512 205.731,58.6179 202,65.5C 201.216,68.7603 201.383,71.9269 202.5,75C 204.113,75.0885 205.28,74.2552 206,72.5C 208.087,64.7107 209.087,64.7107 209,72.5C 204.319,75.8951 203.319,80.2284 206,85.5C 207,86.8333 208,86.8333 209,85.5C 209.191,83.2922 209.691,81.2922 210.5,79.5C 210.5,79.8333 210.5,80.1667 210.5,80.5C 209.573,84.4454 210.906,87.1121 214.5,88.5C 215.331,86.5269 215.498,84.5269 215,82.5C 216.826,83.8413 217.993,83.3413 218.5,81C 217.84,78.2257 218.007,75.3924 219,72.5C 219.654,71.3044 220.154,71.3044 220.5,72.5C 219.572,73.7678 219.405,75.1011 220,76.5C 221.371,74.9586 222.871,73.6253 224.5,72.5C 222.856,75.0045 221.356,77.6711 220,80.5C 219.506,82.1341 219.34,83.8008 219.5,85.5C 218.5,85.5 217.5,85.5 216.5,85.5C 216.643,87.2624 216.309,88.9291 215.5,90.5C 216.167,91.1667 216.833,91.8333 217.5,92.5C 216.3,93.2916 214.967,93.2916 213.5,92.5C 212.699,94.0418 212.366,95.7085 212.5,97.5C 208.696,93.9163 205.863,89.583 204,84.5C 201.775,77.3183 199.275,70.3183 196.5,63.5C 196.232,61.901 196.566,60.5676 197.5,59.5 Z"/></g>
<g><path style="opacity:1" fill="#272727" d="M 181.5,60.5 C 181.75,62.674 182.75,64.3406 184.5,65.5C 184.961,67.5504 185.628,69.5504 186.5,71.5C 184.266,72.7377 183.932,74.4043 185.5,76.5C 185.182,77.6473 184.516,78.4806 183.5,79C 184.76,80.8138 184.76,82.6471 183.5,84.5C 182.065,83.1763 181.065,81.5096 180.5,79.5C 180.167,80 179.833,80.5 179.5,81C 180.233,82.7659 180.567,84.5992 180.5,86.5C 181.5,86.5 182.5,86.5 183.5,86.5C 183.628,88.6547 183.128,90.6547 182,92.5C 177.316,88.3454 174.15,83.3454 172.5,77.5C 172.833,76.1667 173.167,74.8333 173.5,73.5C 174.892,74.6053 176.059,75.9386 177,77.5C 177.054,74.9557 176.22,72.6224 174.5,70.5C 174.667,69.8333 174.833,69.1667 175,68.5C 177.371,71.8459 179.871,74.6792 182.5,77C 179.56,73.2135 177.227,69.0468 175.5,64.5C 175.894,62.0454 177.06,60.0454 179,58.5C 179.708,59.3805 180.542,60.0472 181.5,60.5 Z"/></g>
<g><path style="opacity:1" fill="#656565" d="M 179.5,64.5 C 181.407,66.447 182.573,68.7804 183,71.5C 180.762,69.6909 179.595,67.3576 179.5,64.5 Z"/></g>
<g><path style="opacity:1" fill="#212121" d="M 187.5,67.5 C 188.951,71.744 190.785,76.0773 193,80.5C 193.667,83.5 193.667,86.5 193,89.5C 192.167,88.5 191.333,87.5 190.5,86.5C 189.524,88.1233 190.024,89.4567 192,90.5C 193.41,97.5391 192.077,98.2058 188,92.5C 187.667,90.5 187.333,88.5 187,86.5C 186.237,89.0635 185.737,89.0635 185.5,86.5C 186.472,84.0461 187.805,81.8794 189.5,80C 187.688,76.078 187.021,71.9113 187.5,67.5 Z"/></g>
<g><path style="opacity:1" fill="#1b1b1b" d="M 234.5,76.5 C 234.5,78.8333 234.5,81.1667 234.5,83.5C 233.549,85.118 232.216,86.4513 230.5,87.5C 229.571,86.3112 229.238,84.9778 229.5,83.5C 230.167,81.5 230.833,79.5 231.5,77.5C 232.391,76.8902 233.391,76.5569 234.5,76.5 Z"/></g>
<g><path style="opacity:1" fill="#a0a0a0" d="M 231.5,77.5 C 230.833,79.5 230.167,81.5 229.5,83.5C 228.609,84.1098 227.609,84.4431 226.5,84.5C 227.934,81.9528 229.6,79.6195 231.5,77.5 Z"/></g>
<g><path style="opacity:1" fill="#181818" d="M 226.5,85.5 C 227.497,85.4701 228.164,85.9701 228.5,87C 227.955,90.1868 227.289,93.3535 226.5,96.5C 225.56,93.017 225.56,89.3503 226.5,85.5 Z"/></g>
<g><path style="opacity:1" fill="#515151" d="M 99.5,80.5 C 100.613,81.9464 100.78,83.6131 100,85.5C 98.0471,90.4055 96.3805,95.4055 95,100.5C 94.3333,98.5 94.3333,96.5 95,94.5C 97.0068,89.9801 98.5068,85.3134 99.5,80.5 Z"/></g>
<g><path style="opacity:1" fill="#2c2c2c" d="M 213.5,92.5 C 209.474,92.7434 208.141,91.0768 209.5,87.5C 210.251,88.376 210.751,89.376 211,90.5C 212.813,89.3909 213.646,90.0576 213.5,92.5 Z"/></g>
<g><path style="opacity:1" fill="#212121" d="M 234.5,89.5 C 234.5,92.1667 234.5,94.8333 234.5,97.5C 233.21,98.0577 232.377,99.0577 232,100.5C 231.667,100.167 231.333,99.8333 231,99.5C 230.517,100.448 230.351,101.448 230.5,102.5C 225.688,101.843 225.188,99.8427 229,96.5C 229.333,97.1667 229.667,97.8333 230,98.5C 229.648,94.4582 231.148,91.4582 234.5,89.5 Z"/></g>
<g><path style="opacity:1" fill="#3f3f3f" d="M 91.5,110.5 C 90.2241,105.915 89.5574,101.082 89.5,96C 89.5009,91.3205 89.8342,86.8205 90.5,82.5C 90.3354,85.5184 90.502,88.5184 91,91.5C 92.3333,88.1667 93.6667,84.8333 95,81.5C 95.8893,80.1118 96.3893,80.2785 96.5,82C 92.5102,90.4492 90.6768,99.2825 91,108.5C 91.3333,108.167 91.6667,107.833 92,107.5C 92.7401,108.749 92.5735,109.749 91.5,110.5 Z"/></g>
<g><path style="opacity:1" fill="#464646" d="M 107.5,102.5 C 107.5,101.833 107.5,101.167 107.5,100.5C 107.649,99.448 107.483,98.448 107,97.5C 106.581,98.6721 105.915,99.6721 105,100.5C 105.564,97.4742 106.564,94.4742 108,91.5C 109.294,94.3321 109.461,97.1655 108.5,100C 110.494,103.005 110.494,106.171 108.5,109.5C 108.083,107.043 107.749,104.71 107.5,102.5 Z"/></g>
<g><path style="opacity:1" fill="#5e5e5e" d="M 125.5,101.5 C 121.854,97.6017 120.354,92.935 121,87.5C 122.207,92.288 123.707,96.9547 125.5,101.5 Z"/></g>
<g><path style="opacity:1" fill="#1f1f1f" d="M 172.5,123.5 C 171.067,126.282 169.9,129.282 169,132.5C 168.5,123.84 168.334,115.173 168.5,106.5C 168.086,100.696 169.086,95.1965 171.5,90C 170.39,87.2628 170.223,84.4294 171,81.5C 174.333,85.5 177.667,89.5 181,93.5C 181.667,95.5 181.667,97.5 181,99.5C 178.412,107.658 175.579,115.658 172.5,123.5 Z"/></g>
<g><path style="opacity:1" fill="#262626" d="M 201.5,99.5 C 204.275,99.8338 204.941,101.167 203.5,103.5C 201.889,102.68 201.222,101.346 201.5,99.5 Z"/></g>
<g><path style="opacity:1" fill="#242424" d="M 209.5,119.5 C 205.151,114.863 203.985,109.529 206,103.5C 207,104.5 208,105.5 209,106.5C 209.232,110.555 209.732,114.555 210.5,118.5C 210.376,119.107 210.043,119.44 209.5,119.5 Z"/></g>
<g><path style="opacity:1" fill="#202020" d="M 234.5,99.5 C 234.5,104.833 234.5,110.167 234.5,115.5C 230.202,114.854 226.202,113.354 222.5,111C 219.726,108.936 217.893,106.436 217,103.5C 220.076,105.299 223.243,106.466 226.5,107C 223.667,105.512 221.001,103.845 218.5,102C 220.217,98.9132 221.55,96.0799 222.5,93.5C 224.585,95.6402 224.585,97.4736 222.5,99C 225.052,101.853 227.885,104.353 231,106.5C 232.021,104.03 233.188,101.696 234.5,99.5 Z"/></g>
<g><path style="opacity:1" fill="#838383" d="M 107.5,100.5 C 107.5,101.167 107.5,101.833 107.5,102.5C 104.854,107.265 102.687,112.265 101,117.5C 100.945,110.95 103.111,105.284 107.5,100.5 Z"/></g>
<g><path style="opacity:1" fill="#535353" d="M 96.5,107.5 C 97.3053,111.645 96.4719,115.645 94,119.5C 94.0864,115.391 94.9197,111.391 96.5,107.5 Z"/></g>
<g><path style="opacity:1" fill="#343434" d="M 168.5,106.5 C 168.334,115.173 168.5,123.84 169,132.5C 169.9,129.282 171.067,126.282 172.5,123.5C 172.5,124.167 172.833,124.5 173.5,124.5C 169.618,133.503 167.618,142.836 167.5,152.5C 167.17,136.991 167.504,121.658 168.5,106.5 Z"/></g>
<g><path style="opacity:1" fill="#444444" d="M 123.5,118.5 C 123.298,120.989 123.798,123.323 125,125.5C 125.743,123.355 126.576,123.189 127.5,125C 126.137,128.86 125.137,132.693 124.5,136.5C 124.71,133.248 124.044,130.248 122.5,127.5C 122.52,124.523 122.853,121.523 123.5,118.5 Z"/></g>
<g><path style="opacity:1" fill="#4e4e4e" d="M 139.5,124.5 C 140.451,125.919 140.784,127.585 140.5,129.5C 142.124,129.64 143.29,128.973 144,127.5C 144.711,129.367 144.211,130.867 142.5,132C 144.047,132.333 145.38,131.833 146.5,130.5C 146.833,130.833 147.167,131.167 147.5,131.5C 143.573,134.019 141.74,137.686 142,142.5C 141.667,142.833 141.333,143.167 141,143.5C 140.667,142.167 140.333,140.833 140,139.5C 138.594,140.668 137.428,140.335 136.5,138.5C 135.186,139.313 134.019,140.313 133,141.5C 132.833,141.167 132.667,140.833 132.5,140.5C 134.64,137.193 136.974,134.026 139.5,131C 137.048,128.921 137.048,126.754 139.5,124.5 Z"/></g>
<g><path style="opacity:1" fill="#525252" d="M 122.5,144.5 C 120.572,150.413 118.239,156.08 115.5,161.5C 115.666,157.486 115.499,153.486 115,149.5C 113.615,154.761 112.615,160.094 112,165.5C 111.778,158.159 112.111,150.826 113,143.5C 113.833,142.5 114.667,141.5 115.5,140.5C 116.184,145.208 117.018,149.874 118,154.5C 118.667,150.5 118.667,146.5 118,142.5C 117.883,139.058 116.717,136.058 114.5,133.5C 115.036,130.895 115.202,128.228 115,125.5C 115.654,126.696 116.154,126.696 116.5,125.5C 115.248,123.265 114.748,120.931 115,118.5C 119.051,126.809 121.551,135.476 122.5,144.5 Z"/></g>
<g><path style="opacity:1" fill="#222222" d="M 206.5,217.5 C 203.535,223.208 201.035,229.208 199,235.5C 196.52,245.46 193.187,255.127 189,264.5C 188.111,265.888 187.611,265.722 187.5,264C 192.035,251.02 195.535,237.853 198,224.5C 194.585,233.545 191.918,242.878 190,252.5C 189.529,254.246 188.862,255.913 188,257.5C 187.374,255.287 187.541,253.12 188.5,251C 185.503,240.476 186.503,230.31 191.5,220.5C 191.013,219.554 190.68,218.554 190.5,217.5C 196.474,206.211 197.974,194.544 195,182.5C 191.628,198.769 188.628,215.102 186,231.5C 185.433,244.532 185.433,257.532 186,270.5C 183.904,276.367 180.571,281.367 176,285.5C 175.71,287.044 175.044,288.377 174,289.5C 174.046,287.687 173.88,286.021 173.5,284.5C 172.104,286.972 171.27,289.638 171,292.5C 170.313,294.555 169.146,296.221 167.5,297.5C 166.817,293.248 165.817,289.082 164.5,285C 164.933,283.072 165.6,281.239 166.5,279.5C 166.333,278.833 166.167,278.167 166,277.5C 164.755,281.498 163.922,281.331 163.5,277C 163.816,255.086 165.316,233.253 168,211.5C 168.667,193.5 168.667,175.5 168,157.5C 167.768,156.263 167.268,155.263 166.5,154.5C 166.5,153.833 166.5,153.167 166.5,152.5C 166.833,152.5 167.167,152.5 167.5,152.5C 167.618,142.836 169.618,133.503 173.5,124.5C 175.977,120.222 178.477,115.888 181,111.5C 181.58,108.453 181.247,108.119 180,110.5C 180.353,106.422 181.353,102.422 183,98.5C 183.654,97.3044 184.154,97.3044 184.5,98.5C 183.674,99.451 183.508,100.451 184,101.5C 185,100.167 186,100.167 187,101.5C 188.459,93.9284 190.292,94.095 192.5,102C 192.428,108.022 192.261,114.189 192,120.5C 191.189,119.04 190.355,118.707 189.5,119.5C 193.008,122.317 194.341,125.983 193.5,130.5C 192.325,130.281 191.325,130.614 190.5,131.5C 191.806,132.912 192.64,134.579 193,136.5C 193.333,147.5 193.667,158.5 194,169.5C 194.308,168.692 194.808,168.025 195.5,167.5C 199.605,176.711 203.438,186.044 207,195.5C 207.636,202.856 207.469,210.189 206.5,217.5 Z"/></g>
<g><path style="opacity:1" fill="#686868" d="M 187.5,105.5 C 189.129,109.419 189.296,113.419 188,117.5C 187.308,116.975 186.808,116.308 186.5,115.5C 186.338,112.214 186.671,108.88 187.5,105.5 Z"/></g>
<g><path style="opacity:1" fill="#6f6f6f" d="M 183.5,109.5 C 185.721,111.33 185.888,113.33 184,115.5C 183.505,113.527 183.338,111.527 183.5,109.5 Z"/></g>
<g><path style="opacity:1" fill="#2e2e2e" d="M 154.5,132.5 C 156.951,134.21 156.951,136.21 154.5,138.5C 154.08,136.674 154.08,134.674 154.5,132.5 Z"/></g>
<g><path style="opacity:1" fill="#232323" d="M 209.5,119.5 C 209.783,120.289 210.283,120.956 211,121.5C 213.298,146.251 212.632,170.917 209,195.5C 203.987,185.058 201.654,174.058 202,162.5C 202.333,164.167 202.667,165.833 203,167.5C 204.193,162.495 202.526,158.828 198,156.5C 197.333,151.5 197.333,146.5 198,141.5C 198.995,142.066 199.828,142.733 200.5,143.5C 201.091,144.151 201.757,144.818 202.5,145.5C 201.167,145.833 199.833,146.167 198.5,146.5C 201.39,149.614 203.224,153.28 204,157.5C 205.716,156.448 206.716,157.114 207,159.5C 207.667,158.167 207.667,156.833 207,155.5C 204.619,153.966 204.119,151.966 205.5,149.5C 206.814,150.313 207.981,151.313 209,152.5C 208.983,150.432 207.983,148.766 206,147.5C 205.51,146.207 205.343,144.873 205.5,143.5C 204.5,143.5 203.5,143.5 202.5,143.5C 202.762,142.022 202.429,140.689 201.5,139.5C 200.702,139.957 200.369,140.624 200.5,141.5C 197.856,139.484 197.023,136.817 198,133.5C 198.667,137.5 199.333,137.5 200,133.5C 200.219,134.938 200.719,136.271 201.5,137.5C 201.833,136.667 202.167,135.833 202.5,135C 200.649,132.419 199.649,129.419 199.5,126C 199.667,124.167 199.833,122.333 200,120.5C 200.089,124.028 200.756,127.362 202,130.5C 202.395,128.821 202.228,127.155 201.5,125.5C 201.833,124.833 202.167,124.167 202.5,123.5C 203.396,124.506 204.062,124.506 204.5,123.5C 203.169,120.166 201.335,117.166 199,114.5C 198.192,112.421 198.359,110.421 199.5,108.5C 204.078,115.186 207.244,122.519 209,130.5C 209.695,127.004 209.195,123.67 207.5,120.5C 207.957,119.702 208.624,119.369 209.5,119.5 Z"/></g>
<g><path style="opacity:1" fill="#2c2c2c" d="M 149.5,136.5 C 150.649,136.791 151.316,137.624 151.5,139C 151.612,140.662 150.946,141.829 149.5,142.5C 148.769,140.599 148.769,138.599 149.5,136.5 Z"/></g>
<g><path style="opacity:1" fill="#232323" d="M 157.5,137.5 C 158.712,139.264 158.379,140.93 156.5,142.5C 156.167,142.333 155.833,142.167 155.5,142C 156.267,140.53 156.933,139.03 157.5,137.5 Z"/></g>
<g><path style="opacity:1" fill="#484848" d="M 96.5,143.5 C 94.7571,140.505 93.7571,137.171 93.5,133.5C 94.2216,133.918 94.7216,134.584 95,135.5C 95.7745,131.853 96.4412,128.186 97,124.5C 97.6667,123.833 98.3333,123.167 99,122.5C 98.5844,126.102 98.0844,129.768 97.5,133.5C 98.675,133.281 99.675,133.614 100.5,134.5C 98.8964,135.603 97.8964,137.103 97.5,139C 98.4818,139.381 99.1485,140.214 99.5,141.5C 99.1667,142.167 98.8333,142.833 98.5,143.5C 97.5712,142.45 96.9046,142.45 96.5,143.5 Z"/></g>
<g><path style="opacity:1" fill="#444444" d="M 200.5,143.5 C 201.833,142.833 201.833,142.167 200.5,141.5C 200.369,140.624 200.702,139.957 201.5,139.5C 202.429,140.689 202.762,142.022 202.5,143.5C 203.5,143.5 204.5,143.5 205.5,143.5C 205.343,144.873 205.51,146.207 206,147.5C 207.983,148.766 208.983,150.432 209,152.5C 207.981,151.313 206.814,150.313 205.5,149.5C 204.119,151.966 204.619,153.966 207,155.5C 207.667,156.833 207.667,158.167 207,159.5C 206.716,157.114 205.716,156.448 204,157.5C 203.224,153.28 201.39,149.614 198.5,146.5C 199.833,146.167 201.167,145.833 202.5,145.5C 201.757,144.818 201.091,144.151 200.5,143.5 Z"/></g>
<g><path style="opacity:1" fill="#3d3d3d" d="M 144.5,143.5 C 144.915,146.368 143.915,148.535 141.5,150C 143.902,151.471 143.736,152.971 141,154.5C 140.935,152.117 140.102,151.45 138.5,152.5C 138.167,152 137.833,151.5 137.5,151C 138.32,149.2 138.986,147.366 139.5,145.5C 141.514,145.608 143.18,144.942 144.5,143.5 Z"/></g>
<g><path style="opacity:1" fill="#222222" d="M 145.5,152.5 C 146.117,152.389 146.617,152.056 147,151.5C 147.495,149.527 147.662,147.527 147.5,145.5C 148.117,145.389 148.617,145.056 149,144.5C 149.496,149.177 148.496,153.51 146,157.5C 145.506,155.866 145.34,154.199 145.5,152.5 Z"/></g>
<g><path style="opacity:1" fill="#2c2c2c" d="M 130.5,156.5 C 130.118,159.65 128.784,162.317 126.5,164.5C 125.893,164.376 125.56,164.043 125.5,163.5C 125.991,160.34 127.658,158.007 130.5,156.5 Z"/></g>
<g><path style="opacity:1" fill="#262626" d="M 144.5,159.5 C 146.048,159.821 146.715,160.821 146.5,162.5C 145.984,164.2 144.984,165.533 143.5,166.5C 143.167,165.833 142.833,165.167 142.5,164.5C 143.187,162.823 143.854,161.156 144.5,159.5 Z"/></g>
<g><path style="opacity:1" fill="#4e4e4e" d="M 182.5,155.5 C 183.139,156.097 183.472,156.93 183.5,158C 182.334,162.164 181.168,166.331 180,170.5C 180.176,165.445 181.01,160.445 182.5,155.5 Z"/></g>
<g><path style="opacity:1" fill="#3e3e3e" d="M 123.5,164.5 C 121.494,169.128 122.827,171.128 127.5,170.5C 125.66,172.185 124.327,174.185 123.5,176.5C 122.883,176.611 122.383,176.944 122,177.5C 122.637,169.229 121.137,168.729 117.5,176C 116.668,176.688 116.002,176.521 115.5,175.5C 117.435,171.723 119.602,168.057 122,164.5C 122.69,163.262 123.19,163.262 123.5,164.5 Z"/></g>
<g><path style="opacity:1" fill="#757575" d="M 188.5,135.5 C 189.118,148.748 188.452,161.748 186.5,174.5C 185.066,177.047 183.4,179.381 181.5,181.5C 183.276,176.271 184.776,170.937 186,165.5C 187.151,151.529 187.817,137.529 188,123.5C 188.499,127.486 188.666,131.486 188.5,135.5 Z"/></g>
<g><path style="opacity:1" fill="#1b1b1b" d="M 142.5,168.5 C 143.844,170.185 143.677,171.852 142,173.5C 141.517,172.552 141.351,171.552 141.5,170.5C 141.833,169.833 142.167,169.167 142.5,168.5 Z"/></g>
<g><path style="opacity:1" fill="#424242" d="M 188.5,135.5 C 189.661,150.661 189.828,165.994 189,181.5C 188.807,190.378 187.974,199.045 186.5,207.5C 186.784,205.585 186.451,203.919 185.5,202.5C 185.672,201.508 185.338,200.842 184.5,200.5C 184.75,199.078 185.583,198.078 187,197.5C 187.815,192.648 187.648,187.981 186.5,183.5C 187.681,180.362 187.681,177.362 186.5,174.5C 188.452,161.748 189.118,148.748 188.5,135.5 Z"/></g>
<g><path style="opacity:1" fill="#999999" d="M 181.5,181.5 C 181.25,183.674 180.25,185.341 178.5,186.5C 178.75,184.326 179.75,182.659 181.5,181.5 Z"/></g>
<g><path style="opacity:1" fill="#252525" d="M 94.5,193.5 C 93.5489,192.081 93.2155,190.415 93.5,188.5C 94.8149,187.524 96.1482,186.524 97.5,185.5C 97.8333,185.833 98.1667,186.167 98.5,186.5C 97.1389,188.85 95.8056,191.184 94.5,193.5 Z"/></g>
<g><path style="opacity:1" fill="#6f6f6f" d="M 144.5,143.5 C 146.027,143.427 147.027,144.094 147.5,145.5C 147.662,147.527 147.495,149.527 147,151.5C 146.617,152.056 146.117,152.389 145.5,152.5C 144.717,154.343 144.05,156.343 143.5,158.5C 143.624,159.107 143.957,159.44 144.5,159.5C 143.854,161.156 143.187,162.823 142.5,164.5C 142.833,165.167 143.167,165.833 143.5,166.5C 144.984,165.533 145.984,164.2 146.5,162.5C 147.043,162.56 147.376,162.893 147.5,163.5C 146.103,165.982 145.269,168.648 145,171.5C 144.781,170.062 144.281,168.729 143.5,167.5C 142.893,167.624 142.56,167.957 142.5,168.5C 142.167,169.167 141.833,169.833 141.5,170.5C 140.088,172.23 140.422,173.73 142.5,175C 141.207,175.49 139.873,175.657 138.5,175.5C 138.649,176.552 138.483,177.552 138,178.5C 136.024,179.822 134.524,181.488 133.5,183.5C 133.568,178.924 135.568,175.424 139.5,173C 138.833,172.667 138.167,172.333 137.5,172C 138.833,169.333 140.167,166.667 141.5,164C 141.454,161.564 141.121,159.064 140.5,156.5C 139.002,158.159 137.502,159.825 136,161.5C 134.273,161.354 134.106,160.687 135.5,159.5C 134.998,158.479 134.332,158.312 133.5,159C 132.167,160 132.167,161 133.5,162C 131.981,163.351 130.648,164.851 129.5,166.5C 129.833,166.833 130.167,167.167 130.5,167.5C 131.48,166.019 132.647,164.685 134,163.5C 134.881,165.274 136.047,165.94 137.5,165.5C 135.821,168.333 133.987,171 132,173.5C 131.692,172.692 131.192,172.025 130.5,171.5C 128.005,173.659 126.339,176.326 125.5,179.5C 125.608,180.442 125.941,181.275 126.5,182C 123.42,183.711 122.254,186.211 123,189.5C 125.145,186.834 127.645,184.834 130.5,183.5C 128.984,185.186 127.65,187.019 126.5,189C 126.905,189.945 127.572,190.612 128.5,191C 126.184,193.735 124.018,196.568 122,199.5C 121.692,198.692 121.192,198.025 120.5,197.5C 119.186,198.313 118.019,199.313 117,200.5C 115.263,204.542 113.43,208.542 111.5,212.5C 113.329,213.282 114.829,212.616 116,210.5C 116.202,208.744 116.702,207.078 117.5,205.5C 118.799,204.91 119.632,203.91 120,202.5C 120.333,203.167 120.667,203.833 121,204.5C 122.164,200.466 124.497,197.466 128,195.5C 129.664,192.673 130.83,189.673 131.5,186.5C 132.907,189.039 134.073,188.706 135,185.5C 135.464,186.094 135.631,186.761 135.5,187.5C 127.777,197.064 120.61,207.064 114,217.5C 109.876,222.467 105.042,226.467 99.5,229.5C 99.0618,229.565 98.7284,229.399 98.5,229C 100.019,227.649 101.352,226.149 102.5,224.5C 99.8468,225.579 97.3468,227.579 95,230.5C 94.6012,230.272 94.4346,229.938 94.5,229.5C 95.7927,227.704 97.2927,226.037 99,224.5C 99.6667,223.833 99.6667,223.167 99,222.5C 96.295,225.036 93.795,227.703 91.5,230.5C 90.2426,231.623 90.5759,232.289 92.5,232.5C 91.6851,233.837 90.5185,234.837 89,235.5C 87.78,233.143 86.9467,233.476 86.5,236.5C 85.5084,236.672 84.8417,236.338 84.5,235.5C 85.4286,234.064 86.5952,232.731 88,231.5C 88.5946,230.101 88.4279,228.768 87.5,227.5C 89.2255,225.772 90.5589,223.772 91.5,221.5C 91.3764,220.893 91.0431,220.56 90.5,220.5C 90.5,220.167 90.5,219.833 90.5,219.5C 92.7107,217.439 94.3773,214.939 95.5,212C 95.4519,210.967 95.1186,210.634 94.5,211C 93.8534,212.609 93.02,214.109 92,215.5C 91.7216,214.584 91.2216,213.918 90.5,213.5C 91.9117,211.02 93.5784,208.687 95.5,206.5C 96.9294,204.669 97.4294,202.669 97,200.5C 92.9906,204.012 89.4906,208.012 86.5,212.5C 85.448,212.649 84.448,212.483 83.5,212C 86.0414,210.152 87.0414,207.652 86.5,204.5C 86.56,203.957 86.8933,203.624 87.5,203.5C 88.2508,204.376 88.7508,205.376 89,206.5C 91,204.5 93,202.5 95,200.5C 95.6877,199.668 95.521,199.002 94.5,198.5C 92.4706,199.629 92.1373,199.129 93.5,197C 92.9056,196.536 92.2389,196.369 91.5,196.5C 90.5919,194.548 90.7586,192.548 92,190.5C 92.2189,191.938 92.7189,193.271 93.5,194.5C 94.6086,195.59 95.6086,195.59 96.5,194.5C 96.0431,193.702 95.3764,193.369 94.5,193.5C 95.8056,191.184 97.1389,188.85 98.5,186.5C 98.1667,186.167 97.8333,185.833 97.5,185.5C 96.1482,186.524 94.8149,187.524 93.5,188.5C 93.3893,187.883 93.056,187.383 92.5,187C 94.6307,184.575 96.1307,181.742 97,178.5C 98.1068,177.288 98.6068,177.621 98.5,179.5C 97.9717,180.721 97.305,181.887 96.5,183C 97.7494,183.74 98.7494,183.573 99.5,182.5C 99.9066,183.762 100.24,185.095 100.5,186.5C 101.333,185.5 102.167,184.5 103,183.5C 103.044,185.76 102.211,187.76 100.5,189.5C 101.636,189.964 102.636,190.298 103.5,190.5C 104.26,192.985 105.26,192.985 106.5,190.5C 106.833,190.5 107.167,190.5 107.5,190.5C 105.093,199.375 106.093,199.708 110.5,191.5C 110.369,192.239 110.536,192.906 111,193.5C 112.385,192.449 113.385,191.116 114,189.5C 114.717,190.044 115.217,190.711 115.5,191.5C 114.133,193.142 113.799,194.808 114.5,196.5C 116.552,195.389 117.886,193.723 118.5,191.5C 119.686,190.295 119.686,188.961 118.5,187.5C 120.852,185.822 122.186,183.489 122.5,180.5C 124.109,179.335 124.443,178.001 123.5,176.5C 124.327,174.185 125.66,172.185 127.5,170.5C 122.827,171.128 121.494,169.128 123.5,164.5C 124.167,164.167 124.833,163.833 125.5,163.5C 125.56,164.043 125.893,164.376 126.5,164.5C 128.784,162.317 130.118,159.65 130.5,156.5C 130.938,156.565 131.272,156.399 131.5,156C 130.833,155.667 130.167,155.333 129.5,155C 131.049,153.786 132.215,152.286 133,150.5C 133.692,151.025 134.192,151.692 134.5,152.5C 133.515,154.098 133.349,155.765 134,157.5C 135.508,155.983 136.342,154.149 136.5,152C 135.618,149.274 136.618,147.107 139.5,145.5C 138.986,147.366 138.32,149.2 137.5,151C 137.833,151.5 138.167,152 138.5,152.5C 140.102,151.45 140.935,152.117 141,154.5C 143.736,152.971 143.902,151.471 141.5,150C 143.915,148.535 144.915,146.368 144.5,143.5 Z"/></g>
<g><path style="opacity:1" fill="#212121" d="M 99.5,192.5 C 102.047,194.29 101.714,195.956 98.5,197.5C 97.3482,195.603 97.6815,193.936 99.5,192.5 Z"/></g>
<g><path style="opacity:1" fill="#212121" d="M 122.5,190.5 C 124.225,190.843 124.725,191.843 124,193.5C 122.846,194.743 121.512,195.743 120,196.5C 119.333,195.5 119.333,194.5 120,193.5C 121.045,192.627 121.878,191.627 122.5,190.5 Z"/></g>
<g><path style="opacity:1" fill="#202020" d="M 118.5,191.5 C 117.886,193.723 116.552,195.389 114.5,196.5C 113.799,194.808 114.133,193.142 115.5,191.5C 116.458,191.047 117.292,190.381 118,189.5C 118.464,190.094 118.631,190.761 118.5,191.5 Z"/></g>
<g><path style="opacity:1" fill="#2b2b2b" d="M 110.5,191.5 C 106.093,199.708 105.093,199.375 107.5,190.5C 108.458,190.047 109.292,189.381 110,188.5C 110.483,189.448 110.649,190.448 110.5,191.5 Z"/></g>
<g><path style="opacity:1" fill="#242424" d="M 106.5,190.5 C 105.26,192.985 104.26,192.985 103.5,190.5C 104.458,190.047 105.292,189.381 106,188.5C 106.464,189.094 106.631,189.761 106.5,190.5 Z"/></g>
<g><path style="opacity:1" fill="#202020" d="M 122.5,180.5 C 122.186,183.489 120.852,185.822 118.5,187.5C 117.402,186.399 117.235,185.066 118,183.5C 118.956,182.421 119.789,181.255 120.5,180C 121.437,179.308 122.103,179.475 122.5,180.5 Z"/></g>
<g><path style="opacity:1" fill="#242424" d="M 115.5,178.5 C 115.905,181.697 114.572,184.364 111.5,186.5C 111.167,186.167 110.833,185.833 110.5,185.5C 111.931,182.961 113.597,180.628 115.5,178.5 Z"/></g>
<g><path style="opacity:1" fill="#1f1f1f" d="M 99.5,182.5 C 98.7494,183.573 97.7494,183.74 96.5,183C 97.305,181.887 97.9717,180.721 98.5,179.5C 100.783,178.924 101.117,179.924 99.5,182.5 Z"/></g>
<g><path style="opacity:1" fill="#414141" d="M 91.5,196.5 C 92.2389,196.369 92.9056,196.536 93.5,197C 92.1373,199.129 92.4706,199.629 94.5,198.5C 95.521,199.002 95.6877,199.668 95,200.5C 93,202.5 91,204.5 89,206.5C 88.7508,205.376 88.2508,204.376 87.5,203.5C 86.8933,203.624 86.56,203.957 86.5,204.5C 85.3552,203.207 85.6885,202.041 87.5,201C 86.4238,199.274 86.2571,197.441 87,195.5C 88.1562,194.007 88.9896,194.174 89.5,196C 88.3005,200.408 88.9672,200.574 91.5,196.5 Z"/></g>
<g><path style="opacity:1" fill="#222222" d="M 112.5,203.5 C 111.624,203.631 110.957,203.298 110.5,202.5C 115.909,195.759 116.575,196.093 112.5,203.5 Z"/></g>
<g><path style="opacity:1" fill="#272727" d="M 82.5,199.5 C 85.0182,200.759 84.8515,202.093 82,203.5C 81.4209,202.072 81.5876,200.738 82.5,199.5 Z"/></g>
<g><path style="opacity:1" fill="#2e2e2e" d="M 133.5,183.5 C 132.599,184.29 131.932,185.29 131.5,186.5C 130.83,189.673 129.664,192.673 128,195.5C 124.497,197.466 122.164,200.466 121,204.5C 120.667,203.833 120.333,203.167 120,202.5C 119.632,203.91 118.799,204.91 117.5,205.5C 116.702,207.078 116.202,208.744 116,210.5C 114.829,212.616 113.329,213.282 111.5,212.5C 113.43,208.542 115.263,204.542 117,200.5C 118.019,199.313 119.186,198.313 120.5,197.5C 121.192,198.025 121.692,198.692 122,199.5C 124.018,196.568 126.184,193.735 128.5,191C 127.572,190.612 126.905,189.945 126.5,189C 127.65,187.019 128.984,185.186 130.5,183.5C 127.645,184.834 125.145,186.834 123,189.5C 122.254,186.211 123.42,183.711 126.5,182C 125.941,181.275 125.608,180.442 125.5,179.5C 126.339,176.326 128.005,173.659 130.5,171.5C 131.192,172.025 131.692,172.692 132,173.5C 133.987,171 135.821,168.333 137.5,165.5C 136.047,165.94 134.881,165.274 134,163.5C 132.647,164.685 131.48,166.019 130.5,167.5C 130.167,167.167 129.833,166.833 129.5,166.5C 130.648,164.851 131.981,163.351 133.5,162C 132.167,161 132.167,160 133.5,159C 134.332,158.312 134.998,158.479 135.5,159.5C 134.106,160.687 134.273,161.354 136,161.5C 137.502,159.825 139.002,158.159 140.5,156.5C 141.121,159.064 141.454,161.564 141.5,164C 140.167,166.667 138.833,169.333 137.5,172C 138.167,172.333 138.833,172.667 139.5,173C 135.568,175.424 133.568,178.924 133.5,183.5 Z"/></g>
<g><path style="opacity:1" fill="#727272" d="M 130.5,183.5 C 130.649,182.448 130.483,181.448 130,180.5C 129.282,181.451 128.449,181.617 127.5,181C 128.898,178.015 131.064,175.848 134,174.5C 133.296,177.624 132.129,180.624 130.5,183.5 Z"/></g>
<g><path style="opacity:1" fill="#272727" d="M 105.5,199.5 C 106.573,200.251 106.74,201.251 106,202.5C 105.031,204.734 103.698,206.734 102,208.5C 101.481,204.868 102.647,201.868 105.5,199.5 Z"/></g>
<g><path style="opacity:1" fill="#4e4e4e" d="M 198.5,195.5 C 199.993,196.312 200.66,197.645 200.5,199.5C 199.397,204.846 198.231,210.18 197,215.5C 197.382,208.855 197.882,202.188 198.5,195.5 Z"/></g>
<g><path style="opacity:1" fill="#202020" d="M 107.5,204.5 C 108.525,204.897 108.692,205.563 108,206.5C 106.667,207.833 105.333,209.167 104,210.5C 103.333,209.833 103.333,209.167 104,208.5C 105.376,207.295 106.542,205.962 107.5,204.5 Z"/></g>
<g><path style="opacity:1" fill="#212121" d="M 112.5,203.5 C 113.4,206.736 112.233,209.403 109,211.5C 108.333,210.167 108.333,208.833 109,207.5C 110.376,206.295 111.542,204.962 112.5,203.5 Z"/></g>
<g><path style="opacity:1" fill="#262626" d="M 90.5,213.5 C 87.1617,214.423 84.6617,216.423 83,219.5C 81.6894,215.738 82.8561,213.405 86.5,212.5C 89.4906,208.012 92.9906,204.012 97,200.5C 97.4294,202.669 96.9294,204.669 95.5,206.5C 93.5784,208.687 91.9117,211.02 90.5,213.5 Z"/></g>
<g><path style="opacity:1" fill="#383838" d="M 99.5,216.5 C 97.2843,217.203 95.451,218.536 94,220.5C 93.7696,217.695 94.9363,215.529 97.5,214C 96.5363,211.353 97.0363,208.853 99,206.5C 99.6514,208.235 99.4847,209.902 98.5,211.5C 99.3554,212.293 100.189,211.96 101,210.5C 101.167,211 101.333,211.5 101.5,212C 100.586,213.406 99.9195,214.906 99.5,216.5 Z"/></g>
<g><path style="opacity:1" fill="#2d2d2d" d="M 99.5,216.5 C 101.463,215.04 103.296,213.373 105,211.5C 105.195,213.207 105.195,214.874 105,216.5C 105.718,215.549 106.551,215.383 107.5,216C 106.743,217.512 105.743,218.846 104.5,220C 103.256,220.456 102.423,219.956 102,218.5C 96.0187,224.048 95.1853,223.381 99.5,216.5 Z"/></g>
<g><path style="opacity:1" fill="#212121" d="M 90.5,219.5 C 88.8712,220.625 87.3712,221.959 86,223.5C 85.8333,222.667 85.6667,221.833 85.5,221C 86.5463,218.114 88.2129,215.614 90.5,213.5C 91.2216,213.918 91.7216,214.584 92,215.5C 93.02,214.109 93.8534,212.609 94.5,211C 95.1186,210.634 95.4519,210.967 95.5,212C 94.3773,214.939 92.7107,217.439 90.5,219.5 Z"/></g>
<g><path style="opacity:1" fill="#232323" d="M 91.5,223.5 C 94.047,225.29 93.7137,226.956 90.5,228.5C 90.1667,228.167 89.8333,227.833 89.5,227.5C 90.6302,226.378 91.2969,225.044 91.5,223.5 Z"/></g>
<g><path style="opacity:1" fill="#1d1d1d" d="M 94.5,229.5 C 93.5416,229.953 92.7083,230.619 92,231.5C 91.6012,231.272 91.4346,230.938 91.5,230.5C 93.795,227.703 96.295,225.036 99,222.5C 99.6667,223.167 99.6667,223.833 99,224.5C 97.2927,226.037 95.7927,227.704 94.5,229.5 Z"/></g>
<g><path style="opacity:0.793" fill="#686868" d="M 166.5,154.5 C 167.268,155.263 167.768,156.263 168,157.5C 168.667,175.5 168.667,193.5 168,211.5C 165.316,233.253 163.816,255.086 163.5,277C 163.922,281.331 164.755,281.498 166,277.5C 166.167,278.167 166.333,278.833 166.5,279.5C 165.6,281.239 164.933,283.072 164.5,285C 165.817,289.082 166.817,293.248 167.5,297.5C 169.146,296.221 170.313,294.555 171,292.5C 171.27,289.638 172.104,286.972 173.5,284.5C 173.88,286.021 174.046,287.687 174,289.5C 175.044,288.377 175.71,287.044 176,285.5C 180.571,281.367 183.904,276.367 186,270.5C 185.433,257.532 185.433,244.532 186,231.5C 188.628,215.102 191.628,198.769 195,182.5C 197.974,194.544 196.474,206.211 190.5,217.5C 190.68,218.554 191.013,219.554 191.5,220.5C 186.503,230.31 185.503,240.476 188.5,251C 187.541,253.12 187.374,255.287 188,257.5C 188.862,255.913 189.529,254.246 190,252.5C 191.918,242.878 194.585,233.545 198,224.5C 195.535,237.853 192.035,251.02 187.5,264C 187.611,265.722 188.111,265.888 189,264.5C 193.187,255.127 196.52,245.46 199,235.5C 201.035,229.208 203.535,223.208 206.5,217.5C 202.182,236.621 196.349,255.288 189,273.5C 183.811,282.857 177.645,291.523 170.5,299.5C 167.833,299.5 165.167,299.5 162.5,299.5C 159.377,289.589 158.043,279.422 158.5,269C 158.419,256.307 159.752,243.807 162.5,231.5C 163.251,232.376 163.751,233.376 164,234.5C 165.3,207.848 166.133,181.182 166.5,154.5 Z"/></g>
<g><path style="opacity:1" fill="#4c4c4c" d="M 174.5,201.5 C 175.117,201.611 175.617,201.944 176,202.5C 176.49,210.581 175.824,218.581 174,226.5C 174.054,218.18 174.221,209.847 174.5,201.5 Z"/></g>
<g><path style="opacity:1" fill="#8a8a8a" d="M 185.5,202.5 C 186.451,203.919 186.784,205.585 186.5,207.5C 185.531,213.848 184.364,220.181 183,226.5C 183.312,218.473 184.146,210.473 185.5,202.5 Z"/></g>
<g><path style="opacity:1" fill="#646464" d="M 186.5,183.5 C 187.648,187.981 187.815,192.648 187,197.5C 185.583,198.078 184.75,199.078 184.5,200.5C 182.185,209.423 180.352,218.423 179,227.5C 178.262,225.047 177.762,222.547 177.5,220C 178.81,211.876 179.81,203.709 180.5,195.5C 181.325,199.122 181.825,202.789 182,206.5C 182.957,199.522 183.791,192.522 184.5,185.5C 185.522,185.145 186.189,184.478 186.5,183.5 Z"/></g>
<g><path style="opacity:1" fill="#818181" d="M 175.5,191.5 C 174.62,194.262 173.454,196.929 172,199.5C 171.796,196.24 172.963,193.573 175.5,191.5 Z"/></g>
<g><path style="opacity:1" fill="#727272" d="M 178.5,186.5 C 178.408,188.848 177.408,190.514 175.5,191.5C 175.75,189.326 176.75,187.659 178.5,186.5 Z"/></g>
<g><path style="opacity:1" fill="#222222" d="M 90.5,220.5 C 91.0431,220.56 91.3764,220.893 91.5,221.5C 90.5589,223.772 89.2255,225.772 87.5,227.5C 88.4279,228.768 88.5946,230.101 88,231.5C 86.5952,232.731 85.4286,234.064 84.5,235.5C 82.8523,236.81 81.1856,238.143 79.5,239.5C 78.7859,235.883 79.6192,232.55 82,229.5C 82.2835,231.886 83.2835,232.552 85,231.5C 84.6948,229.557 84.6948,227.557 85,225.5C 87.3284,224.336 89.1618,222.67 90.5,220.5 Z"/></g>
<g><path style="opacity:1" fill="#252525" d="M 92.5,232.5 C 93.525,232.897 93.6917,233.563 93,234.5C 88.3938,238.041 83.5604,240.875 78.5,243C 80.7987,240.183 83.4653,238.017 86.5,236.5C 86.9467,233.476 87.78,233.143 89,235.5C 90.5185,234.837 91.6851,233.837 92.5,232.5 Z"/></g>
<g><path style="opacity:1" fill="#898989" d="M 190.5,227.5 C 191.376,227.369 192.043,227.702 192.5,228.5C 190.822,233.035 189.655,237.702 189,242.5C 188.43,237.393 188.93,232.393 190.5,227.5 Z"/></g>
<g><path style="opacity:1" fill="#4a4a4a" d="M 176.5,253.5 C 177.226,254.765 177.226,256.265 176.5,258C 176.157,260.565 174.99,261.399 173,260.5C 172.517,261.448 172.351,262.448 172.5,263.5C 171.5,263.5 170.5,263.5 169.5,263.5C 168.769,261.401 168.769,259.401 169.5,257.5C 170.517,260.028 171.684,260.028 173,257.5C 173.333,257.833 173.667,258.167 174,258.5C 174.847,256.807 175.68,255.14 176.5,253.5 Z"/></g>
<g><path style="opacity:1" fill="#575757" d="M 181.5,259.5 C 181.987,264.951 180.82,270.284 178,275.5C 177.333,273.833 177.333,272.167 178,270.5C 180.064,267.14 181.231,263.474 181.5,259.5 Z"/></g>
</svg>
