<?xml version="1.0" encoding="UTF-8"?>
<!DOCTYPE svg PUBLIC "-//W3C//DTD SVG 1.1//EN" "http://www.w3.org/Graphics/SVG/1.1/DTD/svg11.dtd">
<svg xmlns="http://www.w3.org/2000/svg" version="1.1" width="211px" height="300px" style="shape-rendering:geometricPrecision; text-rendering:geometricPrecision; image-rendering:optimizeQuality; fill-rule:evenodd; clip-rule:evenodd" xmlns:xlink="http://www.w3.org/1999/xlink">
<g><path style="opacity:0.845" fill="#676767" d="M 4.5,-0.5 C 5.83333,-0.5 7.16667,-0.5 8.5,-0.5C 13.976,15.8472 15.3094,32.1806 12.5,48.5C 6.88563,49.0485 4.38563,46.3818 5,40.5C 6.33333,39.1667 7.66667,37.8333 9,36.5C 9.69169,35.5632 9.52502,34.8966 8.5,34.5C 11.3504,23.8089 10.8504,13.1422 7,2.5C 6.66667,2.16667 6.33333,1.83333 6,1.5C 4.46518,5.32296 2.29851,8.65629 -0.5,11.5C -0.5,10.5 -0.5,9.5 -0.5,8.5C 0.88309,5.4058 2.54976,2.4058 4.5,-0.5 Z"/></g>
<g><path style="opacity:0.576" fill="#686868" d="M 11.5,-0.5 C 12.1667,-0.5 12.8333,-0.5 13.5,-0.5C 15.6773,7.0281 17.0106,14.6948 17.5,22.5C 15.2588,14.9867 13.2588,7.32002 11.5,-0.5 Z"/></g>
<g><path style="opacity:0.689" fill="#676767" d="M 28.5,-0.5 C 29.1667,-0.5 29.8333,-0.5 30.5,-0.5C 33.5817,7.74362 36.2484,16.077 38.5,24.5C 37.2101,23.9423 36.3768,22.9423 36,21.5C 34.688,16.2091 32.3547,11.5425 29,7.5C 29.8059,4.82898 29.6393,2.16231 28.5,-0.5 Z"/></g>
<g><path style="opacity:0.998" fill="#222222" d="M 85.5,-0.5 C 91.8333,-0.5 98.1667,-0.5 104.5,-0.5C 105.871,3.05825 105.204,3.39159 102.5,0.5C 102.167,0.833333 101.833,1.16667 101.5,1.5C 103.473,4.63971 105.64,7.63971 108,10.5C 108.492,9.45104 108.326,8.45104 107.5,7.5C 108.167,7.16667 108.833,6.83333 109.5,6.5C 108.212,4.26121 107.212,1.92788 106.5,-0.5C 129.833,-0.5 153.167,-0.5 176.5,-0.5C 182.865,7.87317 188.865,16.5398 194.5,25.5C 194.333,25.8333 194.167,26.1667 194,26.5C 191.343,22.5176 190.676,22.5176 192,26.5C 193,27.5 194,28.5 195,29.5C 195.77,28.4019 196.603,28.4019 197.5,29.5C 198.855,35.2109 201.522,40.2109 205.5,44.5C 206.492,48.4818 207.492,52.4818 208.5,56.5C 208.167,57.1667 207.833,57.8333 207.5,58.5C 201.552,59.6236 195.552,59.7903 189.5,59C 181.976,57.2698 174.643,54.9365 167.5,52C 158.881,47.522 150.214,43.3554 141.5,39.5C 135.314,36.5777 129.648,32.911 124.5,28.5C 122.025,25.7589 119.025,23.7589 115.5,22.5C 107.203,15.3515 98.536,8.68488 89.5,2.5C 87.5956,2.26242 86.2623,1.26242 85.5,-0.5 Z"/></g>
<g><path style="opacity:1" fill="#303030" d="M -0.5,-0.5 C 1.16667,-0.5 2.83333,-0.5 4.5,-0.5C 2.54976,2.4058 0.88309,5.4058 -0.5,8.5C -0.5,5.5 -0.5,2.5 -0.5,-0.5 Z"/></g>
<g><path style="opacity:1" fill="#454545" d="M 104.5,-0.5 C 105.167,-0.5 105.833,-0.5 106.5,-0.5C 107.212,1.92788 108.212,4.26121 109.5,6.5C 108.833,6.83333 108.167,7.16667 107.5,7.5C 108.326,8.45104 108.492,9.45104 108,10.5C 105.64,7.63971 103.473,4.63971 101.5,1.5C 101.833,1.16667 102.167,0.833333 102.5,0.5C 105.204,3.39159 105.871,3.05825 104.5,-0.5 Z"/></g>
<g><path style="opacity:1" fill="#2d2d2d" d="M 70.5,5.5 C 71.8333,6.5 73.1667,7.5 74.5,8.5C 74.3893,9.11742 74.056,9.61742 73.5,10C 84.4712,15.6226 84.1379,16.6226 72.5,13C 70.5762,9.59569 67.9095,7.09569 64.5,5.5C 66.4012,4.76911 68.4012,4.76911 70.5,5.5 Z"/></g>
<g><path style="opacity:1" fill="#686868" d="M 56.5,-0.5 C 58.8333,-0.5 61.1667,-0.5 63.5,-0.5C 65.8333,1.5 68.1667,3.5 70.5,5.5C 68.4012,4.76911 66.4012,4.76911 64.5,5.5C 67.9095,7.09569 70.5762,9.59569 72.5,13C 84.1379,16.6226 84.4712,15.6226 73.5,10C 74.056,9.61742 74.3893,9.11742 74.5,8.5C 75.552,8.35055 76.552,8.51722 77.5,9C 83.0344,13.405 88.0344,18.2383 92.5,23.5C 88.4878,20.2438 83.9878,17.9105 79,16.5C 78.5,16.6667 78,16.8333 77.5,17C 79.54,19.3358 81.8733,21.1692 84.5,22.5C 82.1148,23.8673 82.4482,25.2007 85.5,26.5C 86.086,26.2907 86.586,25.9574 87,25.5C 93.1667,31 99.3333,36.5 105.5,42C 100.778,40.3193 96.7775,37.3193 93.5,33C 89.0199,31.9276 85.3532,29.5943 82.5,26C 81.1667,25.6667 79.8333,25.3333 78.5,25C 71.5135,16.1888 64.1802,7.68881 56.5,-0.5 Z"/></g>
<g><path style="opacity:0.725" fill="#6c6c6c" d="M 89.5,2.5 C 98.536,8.68488 107.203,15.3515 115.5,22.5C 105.973,16.9751 97.3059,10.3084 89.5,2.5 Z"/></g>
<g><path style="opacity:1" fill="#222222" d="M 92.5,23.5 C 92.631,24.2389 92.4643,24.9056 92,25.5C 89.7646,23.7976 87.2646,22.7976 84.5,22.5C 81.8733,21.1692 79.54,19.3358 77.5,17C 78,16.8333 78.5,16.6667 79,16.5C 83.9878,17.9105 88.4878,20.2438 92.5,23.5 Z"/></g>
<g><path style="opacity:1" fill="#2f2f2f" d="M 26.5,-0.5 C 27.1667,-0.5 27.8333,-0.5 28.5,-0.5C 29.6393,2.16231 29.8059,4.82898 29,7.5C 32.3547,11.5425 34.688,16.2091 36,21.5C 36.3768,22.9423 37.2101,23.9423 38.5,24.5C 38.8333,25.1667 39.1667,25.8333 39.5,26.5C 39.4559,33.1529 41.1225,39.6529 44.5,46C 44.3333,46.5 44.1667,47 44,47.5C 40.5736,40.1436 37.9069,32.4769 36,24.5C 35.3333,25.8333 34.6667,25.8333 34,24.5C 31.57,20.7063 30.7367,16.7063 31.5,12.5C 31.1543,11.3044 30.6543,11.3044 30,12.5C 27.8853,8.4288 26.7187,4.09546 26.5,-0.5 Z"/></g>
<g><path style="opacity:0.294" fill="#6d6d6d" d="M 115.5,22.5 C 119.025,23.7589 122.025,25.7589 124.5,28.5C 123.448,28.6495 122.448,28.4828 121.5,28C 119.237,26.383 117.237,24.5497 115.5,22.5 Z"/></g>
<g><path style="opacity:1" fill="#282828" d="M 205.5,44.5 C 203.593,39.0157 200.927,34.0157 197.5,29.5C 196.972,28.1526 196.805,26.8193 197,25.5C 201.529,31.2216 205.029,37.5549 207.5,44.5C 207.03,45.463 206.363,45.463 205.5,44.5 Z"/></g>
<g><path style="opacity:1" fill="#494949" d="M 188.5,43.5 C 186.418,43.6243 184.918,44.6243 184,46.5C 182.711,44.9452 182.044,43.2785 182,41.5C 184.428,43.9741 184.928,43.4741 183.5,40C 182.551,39.3828 181.718,39.5494 181,40.5C 180,39.1667 179,37.8333 178,36.5C 177.667,36.8333 177.333,37.1667 177,37.5C 174.75,36.2921 172.583,34.9587 170.5,33.5C 170.089,34.2624 169.923,35.2624 170,36.5C 165.231,31.1136 165.731,29.7802 171.5,32.5C 172.696,32.1543 172.696,31.6543 171.5,31C 172.167,30.3333 172.833,30.3333 173.5,31C 176.762,34.095 180.428,36.595 184.5,38.5C 185.857,40.1856 187.19,41.8523 188.5,43.5 Z"/></g>
<g><path style="opacity:1" fill="#686868" d="M 197.5,29.5 C 200.927,34.0157 203.593,39.0157 205.5,44.5C 201.522,40.2109 198.855,35.2109 197.5,29.5 Z"/></g>
<g><path style="opacity:1" fill="#1d1d1d" d="M 8.5,-0.5 C 9.5,-0.5 10.5,-0.5 11.5,-0.5C 13.2588,7.32002 15.2588,14.9867 17.5,22.5C 17.5,23.1667 17.5,23.8333 17.5,24.5C 17.7862,32.9254 17.1195,41.2588 15.5,49.5C 11.8695,49.771 10.8695,51.4377 12.5,54.5C 12.5,54.8333 12.5,55.1667 12.5,55.5C 10.9731,55.427 9.97306,56.0937 9.5,57.5C 8.83333,57.1667 8.16667,56.8333 7.5,56.5C 8.22713,58.9538 9.22713,61.2872 10.5,63.5C 9.22641,64.1894 9.22641,65.0228 10.5,66C 9.9389,67.676 8.9389,69.0094 7.5,70C 8.35668,70.6891 9.02335,71.5224 9.5,72.5C 8.2192,72.0161 7.2192,72.6827 6.5,74.5C 3.40494,71.308 1.07161,67.6413 -0.5,63.5C -0.5,62.8333 -0.5,62.1667 -0.5,61.5C 1.39037,61.2965 2.89037,61.9632 4,63.5C 4.33333,65.8333 4.66667,68.1667 5,70.5C 6.80482,67.8779 6.80482,65.2113 5,62.5C 3.14702,60.0975 1.31369,57.7641 -0.5,55.5C -0.5,48.5 -0.5,41.5 -0.5,34.5C 2.5,34.5 5.5,34.5 8.5,34.5C 9.52502,34.8966 9.69169,35.5632 9,36.5C 7.66667,37.8333 6.33333,39.1667 5,40.5C 4.38563,46.3818 6.88563,49.0485 12.5,48.5C 15.3094,32.1806 13.976,15.8472 8.5,-0.5 Z"/></g>
<g><path style="opacity:0.706" fill="#666666" d="M 176.5,-0.5 C 177.5,-0.5 178.5,-0.5 179.5,-0.5C 189.657,10.4954 198.49,22.4954 206,35.5C 207.671,39.8927 209.171,44.226 210.5,48.5C 210.5,52.8333 210.5,57.1667 210.5,61.5C 209.265,61.7214 208.265,62.3881 207.5,63.5C 183.311,61.2176 161.311,53.2176 141.5,39.5C 150.214,43.3554 158.881,47.522 167.5,52C 174.643,54.9365 181.976,57.2698 189.5,59C 195.552,59.7903 201.552,59.6236 207.5,58.5C 207.833,57.8333 208.167,57.1667 208.5,56.5C 207.492,52.4818 206.492,48.4818 205.5,44.5C 206.363,45.463 207.03,45.463 207.5,44.5C 205.029,37.5549 201.529,31.2216 197,25.5C 196.805,26.8193 196.972,28.1526 197.5,29.5C 196.603,28.4019 195.77,28.4019 195,29.5C 194,28.5 193,27.5 192,26.5C 190.676,22.5176 191.343,22.5176 194,26.5C 194.167,26.1667 194.333,25.8333 194.5,25.5C 188.865,16.5398 182.865,7.87317 176.5,-0.5 Z"/></g>
<g><path style="opacity:1" fill="#686868" d="M 188.5,43.5 C 191.829,44.9636 194.829,47.1303 197.5,50C 193.613,49.31 190.613,47.1434 188.5,43.5 Z"/></g>
<g><path style="opacity:0.934" fill="#626262" d="M 38.5,-0.5 C 43.1667,-0.5 47.8333,-0.5 52.5,-0.5C 59.8322,6.50501 66.4989,14.1717 72.5,22.5C 72.4423,26.7468 74.4423,29.0802 78.5,29.5C 78.5,30.5 78.5,31.5 78.5,32.5C 77.5,32.5 76.5,32.5 75.5,32.5C 76.3287,35.4686 76.4954,38.4686 76,41.5C 75.6667,40.8333 75.3333,40.1667 75,39.5C 74.0373,52.807 77.0373,65.1404 84,76.5C 84.3333,75.8333 84.6667,75.1667 85,74.5C 85.5946,75.8989 85.4279,77.2322 84.5,78.5C 84.8457,79.6956 85.3457,79.6956 86,78.5C 88.7912,87.5013 89.7912,87.5013 89,78.5C 88.6667,78.8333 88.3333,79.1667 88,79.5C 87.3333,77.5 87.3333,75.5 88,73.5C 88.2189,74.938 88.7189,76.2713 89.5,77.5C 90.6648,69.855 90.8315,62.1883 90,54.5C 88.1044,51.762 86.771,48.762 86,45.5C 85.6667,46.1667 85.3333,46.8333 85,47.5C 84.053,42.4513 81.8863,38.118 78.5,34.5C 79.7185,34.891 80.5518,34.2244 81,32.5C 87.1817,40.1953 92.3484,48.5287 96.5,57.5C 95.0297,60.3193 95.1964,62.986 97,65.5C 98.295,60.3948 99.9616,60.3948 102,65.5C 102.333,64.5 102.667,63.5 103,62.5C 108.542,67.9378 112.208,74.2711 114,81.5C 112.426,80.0158 111.093,78.3492 110,76.5C 109.805,78.2072 109.805,79.8739 110,81.5C 108.673,78.8685 107.34,76.2019 106,73.5C 105.833,74.3333 105.667,75.1667 105.5,76C 109.905,91.1012 112.905,106.435 114.5,122C 114.333,125.833 114.167,129.667 114,133.5C 111.892,142.85 109.392,152.017 106.5,161C 106.334,164.165 107.167,166.998 109,169.5C 109.858,161.547 111.858,153.88 115,146.5C 115.252,148.931 114.752,151.265 113.5,153.5C 114.167,155.5 114.833,157.5 115.5,159.5C 112.722,163.867 111.389,168.7 111.5,174C 112.47,178.475 113.637,182.975 115,187.5C 115.333,187.833 115.667,188.167 116,188.5C 116.259,182.82 115.926,177.154 115,171.5C 114.028,175.232 113.528,174.899 113.5,170.5C 113.594,168.077 114.094,165.744 115,163.5C 117.385,172.434 117.885,181.434 116.5,190.5C 116.887,191.72 117.72,192.387 119,192.5C 120.477,191.556 121.477,190.223 122,188.5C 122.618,180.079 122.285,171.746 121,163.5C 122.732,168.35 123.732,173.35 124,178.5C 123.031,154.598 124.031,154.598 127,178.5C 128.325,174.861 129.492,171.194 130.5,167.5C 131.285,165.626 131.952,163.626 132.5,161.5C 134.165,156.456 133.832,151.623 131.5,147C 131.944,145.238 132.444,145.405 133,147.5C 137.294,126.117 135.627,104.45 128,82.5C 122.928,68.3553 116.261,55.0219 108,42.5C 101.718,33.8093 93.8843,27.1426 84.5,22.5C 87.2646,22.7976 89.7646,23.7976 92,25.5C 92.4643,24.9056 92.631,24.2389 92.5,23.5C 93.2389,23.369 93.9056,23.5357 94.5,24C 135.237,66.6539 148.237,116.654 133.5,174C 134.715,180.94 137.215,187.44 141,193.5C 143.003,201.507 145.003,209.507 147,217.5C 149.054,230.449 151.554,243.282 154.5,256C 152.963,257.11 152.297,258.61 152.5,260.5C 150.473,260.662 148.473,260.495 146.5,260C 138.934,255.268 132.934,249.102 128.5,241.5C 124.858,239.025 121.358,236.358 118,233.5C 109.734,221.238 100.734,209.572 91,198.5C 84.9844,186.469 78.9844,174.469 73,162.5C 72.8247,167.019 72.3247,171.353 71.5,175.5C 70.6688,161.339 70.1688,147.006 70,132.5C 68.584,127.585 67.584,122.585 67,117.5C 66.3457,118.696 65.8457,118.696 65.5,117.5C 66.724,115.161 66.724,112.828 65.5,110.5C 64.6043,111.506 63.9377,111.506 63.5,110.5C 64.3829,109.452 65.0496,108.285 65.5,107C 63.8137,104.044 62.8137,100.877 62.5,97.5C 63.3629,96.0597 63.3629,94.7264 62.5,93.5C 64.0454,91.5604 66.0454,90.3938 68.5,90C 67.6383,87.2656 66.805,87.0989 66,89.5C 65.1597,86.5363 64.1597,86.203 63,88.5C 62.6667,87.8333 62.3333,87.1667 62,86.5C 61.1072,87.7112 60.2739,87.7112 59.5,86.5C 60.0253,85.8076 60.6919,85.3076 61.5,85C 60.4829,83.9505 60.3162,82.7839 61,81.5C 61.3333,82.1667 61.6667,82.8333 62,83.5C 62.7697,82.4019 63.603,82.4019 64.5,83.5C 72.7704,92.2715 81.2704,100.938 90,109.5C 88.8833,101.151 87.2167,92.8181 85,84.5C 80.7199,74.3298 76.0533,64.3298 71,54.5C 59.6512,36.4687 48.8178,18.1354 38.5,-0.5 Z"/></g>
<g><path style="opacity:1" fill="#242424" d="M 46.5,2.5 C 51.4365,5.60117 55.6031,9.60117 59,14.5C 59.8928,13.2888 60.7261,13.2888 61.5,14.5C 63.817,18.9464 65.6504,23.6131 67,28.5C 66.8446,26.1893 66.8446,23.856 67,21.5C 68.0836,22.6651 68.9169,23.9984 69.5,25.5C 70.325,26.3857 71.325,26.719 72.5,26.5C 72.5191,28.0603 72.8524,29.5603 73.5,31C 73.1081,32.0105 72.4415,32.5105 71.5,32.5C 72.6055,36.777 72.7722,41.1103 72,45.5C 71.2825,46.4506 70.4491,46.6172 69.5,46C 65.5268,38.0106 60.6935,30.5106 55,23.5C 51.0414,16.9216 48.2081,9.92161 46.5,2.5 Z"/></g>
<g><path style="opacity:1" fill="#474747" d="M 7.5,56.5 C 4.46979,54.1203 3.46979,51.1203 4.5,47.5C 5.37678,50.5648 6.37678,53.5648 7.5,56.5 Z"/></g>
<g><path style="opacity:1" fill="#151515" d="M 15.5,49.5 C 17.1804,51.5274 18.3471,53.8608 19,56.5C 19.6667,55.1667 20.3333,55.1667 21,56.5C 21.9009,59.0707 23.2342,61.404 25,63.5C 23.3599,59.6079 22.0265,55.6079 21,51.5C 25.0534,53.8867 28.0534,57.22 30,61.5C 30.195,60.1807 30.0283,58.8474 29.5,57.5C 30.397,56.4019 31.2303,56.4019 32,57.5C 33.3399,60.2019 34.6733,62.8685 36,65.5C 35.3525,62.7103 35.5192,60.0436 36.5,57.5C 38.4077,61.3557 40.2411,65.3557 42,69.5C 41.6374,67.2842 41.8041,65.1176 42.5,63C 41.7113,61.3745 40.7113,59.8745 39.5,58.5C 41.3293,57.7176 42.8293,58.3843 44,60.5C 46.4942,65.6047 48.4942,70.938 50,76.5C 51.8302,96.0833 47.4968,114.083 37,130.5C 35.3333,132.167 33.6667,133.833 32,135.5C 33.3049,130.797 35.6382,126.464 39,122.5C 42.1254,114.587 44.9587,106.587 47.5,98.5C 42.1254,88.913 41.4588,89.2463 45.5,99.5C 45.1667,100.167 44.8333,100.833 44.5,101.5C 42.8513,100.352 41.3513,99.019 40,97.5C 39.8333,97.8333 39.6667,98.1667 39.5,98.5C 41.2162,101.095 42.2162,103.929 42.5,107C 40.6769,111.359 39.0102,115.859 37.5,120.5C 37.1627,115.853 35.1627,112.186 31.5,109.5C 31.2623,107.355 30.2623,105.688 28.5,104.5C 27.7492,105.376 27.2492,106.376 27,107.5C 24.746,103.993 22.746,100.327 21,96.5C 20.7435,99.557 20.2435,102.557 19.5,105.5C 20.8545,107.521 22.5212,109.188 24.5,110.5C 26.166,114.497 27.8327,118.497 29.5,122.5C 28.3984,127.678 27.5651,127.678 27,122.5C 26.6667,123.167 26.3333,123.833 26,124.5C 25.6667,122.5 25.3333,120.5 25,118.5C 24.6924,119.308 24.1924,119.975 23.5,120.5C 20.4797,115.801 16.9797,111.467 13,107.5C 13.4824,109.408 14.1491,111.408 15,113.5C 16.5581,112.655 17.5581,113.321 18,115.5C 18.6667,117.5 18.6667,119.5 18,121.5C 15.997,118.778 13.997,116.112 12,113.5C 11.6667,111.5 11.3333,109.5 11,107.5C 10.6827,109.301 10.016,109.634 9,108.5C 8.98916,103.694 9.15583,98.861 9.5,94C 9.65635,88.9104 8.98968,84.0771 7.5,79.5C 6.962,77.8828 6.62867,76.2161 6.5,74.5C 7.2192,72.6827 8.2192,72.0161 9.5,72.5C 9.02335,71.5224 8.35668,70.6891 7.5,70C 8.9389,69.0094 9.9389,67.676 10.5,66C 9.22641,65.0228 9.22641,64.1894 10.5,63.5C 10.9867,64.4734 11.4867,65.4734 12,66.5C 12.1667,66 12.3333,65.5 12.5,65C 11.3487,62.5351 10.3487,60.0351 9.5,57.5C 9.97306,56.0937 10.9731,55.427 12.5,55.5C 13.1624,59.5188 14.9957,62.8521 18,65.5C 17.2324,61.2981 15.3991,57.6315 12.5,54.5C 10.8695,51.4377 11.8695,49.771 15.5,49.5 Z"/></g>
<g><path style="opacity:1" fill="#292929" d="M 36.5,57.5 C 35.5192,60.0436 35.3525,62.7103 36,65.5C 34.6733,62.8685 33.3399,60.2019 32,57.5C 31.2303,56.4019 30.397,56.4019 29.5,57.5C 28.0666,55.4809 26.7332,53.3143 25.5,51C 27.3867,50.8374 28.8867,51.6707 30,53.5C 30.3333,52.5 30.6667,51.5 31,50.5C 33.4295,52.4221 35.2628,54.7554 36.5,57.5 Z"/></g>
<g><path style="opacity:1" fill="#717171" d="M 12.5,54.5 C 15.3991,57.6315 17.2324,61.2981 18,65.5C 14.9957,62.8521 13.1624,59.5188 12.5,55.5C 12.5,55.1667 12.5,54.8333 12.5,54.5 Z"/></g>
<g><path style="opacity:1" fill="#454545" d="M -0.5,55.5 C 1.31369,57.7641 3.14702,60.0975 5,62.5C 6.80482,65.2113 6.80482,67.8779 5,70.5C 4.66667,68.1667 4.33333,65.8333 4,63.5C 2.89037,61.9632 1.39037,61.2965 -0.5,61.5C -0.5,59.5 -0.5,57.5 -0.5,55.5 Z"/></g>
<g><path style="opacity:1" fill="#626262" d="M 7.5,56.5 C 8.16667,56.8333 8.83333,57.1667 9.5,57.5C 10.3487,60.0351 11.3487,62.5351 12.5,65C 12.3333,65.5 12.1667,66 12,66.5C 11.4867,65.4734 10.9867,64.4734 10.5,63.5C 9.22713,61.2872 8.22713,58.9538 7.5,56.5 Z"/></g>
<g><path style="opacity:1" fill="#232323" d="M 52.5,-0.5 C 53.8333,-0.5 55.1667,-0.5 56.5,-0.5C 64.1802,7.68881 71.5135,16.1888 78.5,25C 79.8333,25.3333 81.1667,25.6667 82.5,26C 85.3532,29.5943 89.0199,31.9276 93.5,33C 96.7775,37.3193 100.778,40.3193 105.5,42C 99.3333,36.5 93.1667,31 87,25.5C 86.586,25.9574 86.086,26.2907 85.5,26.5C 82.4482,25.2007 82.1148,23.8673 84.5,22.5C 93.8843,27.1426 101.718,33.8093 108,42.5C 116.261,55.0219 122.928,68.3553 128,82.5C 135.627,104.45 137.294,126.117 133,147.5C 132.444,145.405 131.944,145.238 131.5,147C 133.832,151.623 134.165,156.456 132.5,161.5C 131.037,158.797 130.204,155.797 130,152.5C 127.325,150.114 126.825,150.78 128.5,154.5C 128.182,155.647 127.516,156.481 126.5,157C 127.471,158.204 128.471,158.704 129.5,158.5C 128.965,160.271 128.131,160.604 127,159.5C 126.257,162.783 126.924,165.783 129,168.5C 129.383,167.944 129.883,167.611 130.5,167.5C 129.492,171.194 128.325,174.861 127,178.5C 124.031,154.598 123.031,154.598 124,178.5C 123.732,173.35 122.732,168.35 121,163.5C 122.285,171.746 122.618,180.079 122,188.5C 121.477,190.223 120.477,191.556 119,192.5C 117.72,192.387 116.887,191.72 116.5,190.5C 117.885,181.434 117.385,172.434 115,163.5C 114.094,165.744 113.594,168.077 113.5,170.5C 113.528,174.899 114.028,175.232 115,171.5C 115.926,177.154 116.259,182.82 116,188.5C 115.667,188.167 115.333,187.833 115,187.5C 113.637,182.975 112.47,178.475 111.5,174C 111.389,168.7 112.722,163.867 115.5,159.5C 114.833,157.5 114.167,155.5 113.5,153.5C 114.752,151.265 115.252,148.931 115,146.5C 111.858,153.88 109.858,161.547 109,169.5C 107.167,166.998 106.334,164.165 106.5,161C 109.392,152.017 111.892,142.85 114,133.5C 114.167,129.667 114.333,125.833 114.5,122C 112.905,106.435 109.905,91.1012 105.5,76C 105.667,75.1667 105.833,74.3333 106,73.5C 107.34,76.2019 108.673,78.8685 110,81.5C 109.805,79.8739 109.805,78.2072 110,76.5C 111.093,78.3492 112.426,80.0158 114,81.5C 112.208,74.2711 108.542,67.9378 103,62.5C 102.667,63.5 102.333,64.5 102,65.5C 99.9616,60.3948 98.295,60.3948 97,65.5C 95.1964,62.986 95.0297,60.3193 96.5,57.5C 92.3484,48.5287 87.1817,40.1953 81,32.5C 80.5518,34.2244 79.7185,34.891 78.5,34.5C 81.8863,38.118 84.053,42.4513 85,47.5C 85.3333,46.8333 85.6667,46.1667 86,45.5C 86.771,48.762 88.1044,51.762 90,54.5C 90.8315,62.1883 90.6648,69.855 89.5,77.5C 88.7189,76.2713 88.2189,74.938 88,73.5C 87.3333,75.5 87.3333,77.5 88,79.5C 88.3333,79.1667 88.6667,78.8333 89,78.5C 89.7912,87.5013 88.7912,87.5013 86,78.5C 85.3457,79.6956 84.8457,79.6956 84.5,78.5C 85.4279,77.2322 85.5946,75.8989 85,74.5C 84.6667,75.1667 84.3333,75.8333 84,76.5C 77.0373,65.1404 74.0373,52.807 75,39.5C 75.3333,40.1667 75.6667,40.8333 76,41.5C 76.4954,38.4686 76.3287,35.4686 75.5,32.5C 76.5,32.5 77.5,32.5 78.5,32.5C 78.5,31.5 78.5,30.5 78.5,29.5C 74.4423,29.0802 72.4423,26.7468 72.5,22.5C 66.4989,14.1717 59.8322,6.50501 52.5,-0.5 Z"/></g>
<g><path style="opacity:1" fill="#686868" d="M 105.5,58.5 C 108.968,62.1405 112.302,65.9739 115.5,70C 114.365,70.7494 113.365,70.5827 112.5,69.5C 109.719,66.0657 107.386,62.3991 105.5,58.5 Z"/></g>
<g><path style="opacity:1" fill="#525252" d="M 105.5,48.5 C 109.373,51.1859 112.206,54.5193 114,58.5C 110.558,55.568 107.725,52.2347 105.5,48.5 Z"/></g>
<g><path style="opacity:1" fill="#6f6f6f" d="M 89.5,35.5 C 94.152,36.6207 98.3186,39.2874 102,43.5C 102.667,44.1667 102.667,44.8333 102,45.5C 98.4413,41.3169 94.2747,37.9835 89.5,35.5 Z"/></g>
<g><path style="opacity:1" fill="#717171" d="M -0.5,63.5 C 1.07161,67.6413 3.40494,71.308 6.5,74.5C 6.62867,76.2161 6.962,77.8828 7.5,79.5C 7.63101,80.2389 7.46434,80.9056 7,81.5C 6.46662,79.0614 5.29995,78.3948 3.5,79.5C 2.58761,78.2618 2.42094,76.9285 3,75.5C 3.33333,75.8333 3.66667,76.1667 4,76.5C 4.66667,75.5 4.66667,74.5 4,73.5C 3,73.1667 2,72.8333 1,72.5C 0.78997,70.9419 0.28997,69.6085 -0.5,68.5C -0.5,66.8333 -0.5,65.1667 -0.5,63.5 Z"/></g>
<g><path style="opacity:1" fill="#4c4c4c" d="M -0.5,68.5 C 0.28997,69.6085 0.78997,70.9419 1,72.5C 2,72.8333 3,73.1667 4,73.5C 4.66667,74.5 4.66667,75.5 4,76.5C 3.66667,76.1667 3.33333,75.8333 3,75.5C 2.42094,76.9285 2.58761,78.2618 3.5,79.5C 2.67706,81.8046 1.34372,83.8046 -0.5,85.5C -0.5,79.8333 -0.5,74.1667 -0.5,68.5 Z"/></g>
<g><path style="opacity:0.887" fill="#636363" d="M 21.5,-0.5 C 23.1667,-0.5 24.8333,-0.5 26.5,-0.5C 26.7187,4.09546 27.8853,8.4288 30,12.5C 30.6543,11.3044 31.1543,11.3044 31.5,12.5C 30.7367,16.7063 31.57,20.7063 34,24.5C 34.6667,25.8333 35.3333,25.8333 36,24.5C 37.9069,32.4769 40.5736,40.1436 44,47.5C 44.1667,47 44.3333,46.5 44.5,46C 41.1225,39.6529 39.4559,33.1529 39.5,26.5C 46.1097,46.3554 54.4431,65.3554 64.5,83.5C 63.603,82.4019 62.7697,82.4019 62,83.5C 61.6667,82.8333 61.3333,82.1667 61,81.5C 60.3162,82.7839 60.4829,83.9505 61.5,85C 60.6919,85.3076 60.0253,85.8076 59.5,86.5C 60.2739,87.7112 61.1072,87.7112 62,86.5C 62.3333,87.1667 62.6667,87.8333 63,88.5C 64.1597,86.203 65.1597,86.5363 66,89.5C 66.805,87.0989 67.6383,87.2656 68.5,90C 66.0454,90.3938 64.0454,91.5604 62.5,93.5C 63.3629,94.7264 63.3629,96.0597 62.5,97.5C 62.1667,97.5 61.8333,97.5 61.5,97.5C 61.8186,95.2495 61.3186,93.2495 60,91.5C 58.9614,92.2438 58.4614,93.2438 58.5,94.5C 57.5714,95.9361 56.4048,97.2695 55,98.5C 55.9447,95.7507 57.1113,92.9173 58.5,90C 58.3333,89.5 58.1667,89 58,88.5C 57.2917,89.3805 56.4584,90.0472 55.5,90.5C 53.2454,94.8245 53.0788,99.1579 55,103.5C 55.7083,102.619 56.5416,101.953 57.5,101.5C 56.4886,103.372 55.6552,105.372 55,107.5C 54.7508,106.376 54.2508,105.376 53.5,104.5C 52.8933,104.624 52.56,104.957 52.5,105.5C 52.6621,107.527 52.4955,109.527 52,111.5C 49.0136,116.157 47.5136,121.157 47.5,126.5C 48.1667,125.5 48.8333,124.5 49.5,123.5C 49.8333,123.667 50.1667,123.833 50.5,124C 49.2117,126.466 49.2117,128.966 50.5,131.5C 49.403,134.009 48.0696,136.175 46.5,138C 48.1994,141.085 49.3661,140.585 50,136.5C 50.1667,137.167 50.3333,137.833 50.5,138.5C 49.2361,142.521 49.2361,146.521 50.5,150.5C 47.6118,153.604 47.9451,156.271 51.5,158.5C 48.9289,165.552 47.7622,172.886 48,180.5C 47.1301,181.108 46.6301,181.941 46.5,183C 47.3881,184.22 48.0548,185.553 48.5,187C 46.087,192.851 43.087,199.018 39.5,205.5C 37.6281,212.039 37.1281,218.706 38,225.5C 41.6667,237.5 45.3333,249.5 49,261.5C 50.1853,263.377 51.1853,265.377 52,267.5C 52.6543,268.696 53.1543,268.696 53.5,267.5C 50.1225,257.281 47.1225,246.948 44.5,236.5C 44.8457,235.304 45.3457,235.304 46,236.5C 48.4386,244.789 50.772,253.123 53,261.5C 53.2189,260.062 53.7189,258.729 54.5,257.5C 55.1191,264.218 55.9524,270.885 57,277.5C 59.0617,282.051 61.395,285.718 64,288.5C 65,288.5 66,288.5 67,288.5C 67.3534,291.539 68.5201,294.205 70.5,296.5C 71.192,293.064 72.192,289.73 73.5,286.5C 73.2998,275.817 73.1331,264.817 73,253.5C 71.3917,240.044 70.225,226.544 69.5,213C 70.7787,206.831 70.7787,200.664 69.5,194.5C 69.8163,188.644 70.4829,182.978 71.5,177.5C 71.8452,199.027 72.6785,220.694 74,242.5C 74.3333,242.167 74.6667,241.833 75,241.5C 79.7452,260.946 79.5785,280.279 74.5,299.5C 72.5,299.5 70.5,299.5 68.5,299.5C 63.1046,292.614 57.9379,285.614 53,278.5C 35.8298,235.147 27.8298,190.147 29,143.5C 24.9314,148.265 20.2647,149.598 15,147.5C 12.6194,148.435 10.1194,148.768 7.5,148.5C 7.41423,147.504 7.74756,146.671 8.5,146C 14.8779,145.207 20.8779,143.207 26.5,140C 28.3293,138.887 29.1626,137.387 29,135.5C 25.4109,137.53 21.5776,138.863 17.5,139.5C 17.6399,137.876 16.9733,136.71 15.5,136C 16.3366,134.989 16.67,133.822 16.5,132.5C 15.8826,132.389 15.3826,132.056 15,131.5C 14.5045,133.473 14.3379,135.473 14.5,137.5C 13.1667,137.5 11.8333,137.5 10.5,137.5C 10.5,136.167 10.5,134.833 10.5,133.5C 9.06888,133.119 8.23555,132.119 8,130.5C 7.66667,130.833 7.33333,131.167 7,131.5C 6.66667,130.5 6.33333,129.5 6,128.5C 4.48151,128.057 3.31485,128.724 2.5,130.5C 4.58542,132.082 6.08542,134.082 7,136.5C 7.33333,135.833 7.66667,135.167 8,134.5C 8.66667,137.167 8.66667,139.833 8,142.5C 6.42052,139.006 4.58718,135.673 2.5,132.5C 1.47934,133.901 0.479345,135.235 -0.5,136.5C -0.5,134.167 -0.5,131.833 -0.5,129.5C 4.12578,118.763 6.29244,107.43 6,95.5C 5.61742,96.056 5.11742,96.3893 4.5,96.5C 5.26535,93.9039 5.59868,91.2372 5.5,88.5C 3.71048,89.0134 2.04381,89.5134 0.5,90C 1.40609,88.3005 1.73943,86.4672 1.5,84.5C 2.5,84.5 3.5,84.5 4.5,84.5C 4.63404,82.7085 4.30071,81.0418 3.5,79.5C 5.29995,78.3948 6.46662,79.0614 7,81.5C 7.46434,80.9056 7.63101,80.2389 7.5,79.5C 8.98968,84.0771 9.65635,88.9104 9.5,94C 9.15583,98.861 8.98916,103.694 9,108.5C 10.016,109.634 10.6827,109.301 11,107.5C 11.3333,109.5 11.6667,111.5 12,113.5C 13.997,116.112 15.997,118.778 18,121.5C 18.6667,119.5 18.6667,117.5 18,115.5C 17.5581,113.321 16.5581,112.655 15,113.5C 14.1491,111.408 13.4824,109.408 13,107.5C 16.9797,111.467 20.4797,115.801 23.5,120.5C 24.1924,119.975 24.6924,119.308 25,118.5C 25.3333,120.5 25.6667,122.5 26,124.5C 26.3333,123.833 26.6667,123.167 27,122.5C 27.5651,127.678 28.3984,127.678 29.5,122.5C 29.8333,122.5 30.1667,122.5 30.5,122.5C 33.0496,122.116 34.3829,120.616 34.5,118C 33.6334,115.104 32.6334,112.271 31.5,109.5C 35.1627,112.186 37.1627,115.853 37.5,120.5C 39.0102,115.859 40.6769,111.359 42.5,107C 42.2162,103.929 41.2162,101.095 39.5,98.5C 39.6667,98.1667 39.8333,97.8333 40,97.5C 41.3513,99.019 42.8513,100.352 44.5,101.5C 44.8333,100.833 45.1667,100.167 45.5,99.5C 41.4588,89.2463 42.1254,88.913 47.5,98.5C 44.9587,106.587 42.1254,114.587 39,122.5C 35.6382,126.464 33.3049,130.797 32,135.5C 33.6667,133.833 35.3333,132.167 37,130.5C 47.4968,114.083 51.8302,96.0833 50,76.5C 48.4942,70.938 46.4942,65.6047 44,60.5C 42.8293,58.3843 41.3293,57.7176 39.5,58.5C 40.7113,59.8745 41.7113,61.3745 42.5,63C 41.8041,65.1176 41.6374,67.2842 42,69.5C 40.2411,65.3557 38.4077,61.3557 36.5,57.5C 35.2628,54.7554 33.4295,52.4221 31,50.5C 30.6667,51.5 30.3333,52.5 30,53.5C 28.8867,51.6707 27.3867,50.8374 25.5,51C 26.7332,53.3143 28.0666,55.4809 29.5,57.5C 30.0283,58.8474 30.195,60.1807 30,61.5C 28.0534,57.22 25.0534,53.8867 21,51.5C 22.0265,55.6079 23.3599,59.6079 25,63.5C 23.2342,61.404 21.9009,59.0707 21,56.5C 20.3333,55.1667 19.6667,55.1667 19,56.5C 18.3471,53.8608 17.1804,51.5274 15.5,49.5C 17.1195,41.2588 17.7862,32.9254 17.5,24.5C 19.1357,28.2095 19.8023,32.2095 19.5,36.5C 18.6892,40.4176 17.6892,44.4176 16.5,48.5C 17.325,49.3857 18.325,49.719 19.5,49.5C 20.7889,40.4125 21.6223,40.7458 22,50.5C 22.6446,47.4411 23.478,44.4411 24.5,41.5C 25.2811,42.7287 25.7811,44.062 26,45.5C 26.4966,43.1902 26.6633,40.8568 26.5,38.5C 24.5168,38.8432 23.1834,38.1765 22.5,36.5C 28.4936,37.5826 33.327,40.5826 37,45.5C 37.0068,42.5214 36.6735,39.5214 36,36.5C 31.1694,24.1711 26.336,11.8377 21.5,-0.5 Z"/></g>
<g><path style="opacity:1" fill="#3a3a3a" d="M 55.5,90.5 C 54.7321,89.7375 54.2321,88.7375 54,87.5C 53.6667,88.1667 53.3333,88.8333 53,89.5C 52.1251,88.1268 51.6251,86.6268 51.5,85C 51.5992,81.9186 51.9325,78.7519 52.5,75.5C 53.3699,77.4066 54.3699,79.2399 55.5,81C 52.6118,85.086 53.1118,86.2526 57,84.5C 57.1667,85 57.3333,85.5 57.5,86C 56.5862,87.4064 55.9195,88.9064 55.5,90.5 Z"/></g>
<g><path style="opacity:1" fill="#222222" d="M 47.5,56.5 C 49.0931,57.3479 50.2597,58.6813 51,60.5C 52.1871,62.0444 52.5205,63.7111 52,65.5C 49.4289,63.0244 47.9289,60.0244 47.5,56.5 Z"/></g>
<g><path style="opacity:1" fill="#232323" d="M 27.5,43.5 C 32.7239,45.6188 36.3906,49.2854 38.5,54.5C 38.3333,55.1667 38.1667,55.8333 38,56.5C 36.0218,53.3548 33.5218,50.6881 30.5,48.5C 28.0552,49.9654 26.0552,49.4654 24.5,47C 25.448,46.5172 26.448,46.3505 27.5,46.5C 27.5,45.5 27.5,44.5 27.5,43.5 Z"/></g>
<g><path style="opacity:0.966" fill="#171717" d="M 19.5,36.5 C 20.5,36.5 21.5,36.5 22.5,36.5C 23.1834,38.1765 24.5168,38.8432 26.5,38.5C 26.6633,40.8568 26.4966,43.1902 26,45.5C 25.7811,44.062 25.2811,42.7287 24.5,41.5C 23.478,44.4411 22.6446,47.4411 22,50.5C 21.6223,40.7458 20.7889,40.4125 19.5,49.5C 18.325,49.719 17.325,49.3857 16.5,48.5C 17.6892,44.4176 18.6892,40.4176 19.5,36.5 Z"/></g>
<g><path style="opacity:1" fill="#232323" d="M 96.5,103.5 C 97.7714,110.122 98.2714,116.788 98,123.5C 96.5667,112.815 94.0667,102.482 90.5,92.5C 90.6667,91.8333 90.8333,91.1667 91,90.5C 91.3333,91.5 91.6667,92.5 92,93.5C 92.8678,86.1095 93.8678,78.7762 95,71.5C 95.5,73 96,74.5 96.5,76C 92.9324,85.3577 92.9324,94.5243 96.5,103.5 Z"/></g>
<g><path style="opacity:1" fill="#171717" d="M 3.5,79.5 C 4.30071,81.0418 4.63404,82.7085 4.5,84.5C 3.5,84.5 2.5,84.5 1.5,84.5C 1.73943,86.4672 1.40609,88.3005 0.5,90C 2.04381,89.5134 3.71048,89.0134 5.5,88.5C 5.59868,91.2372 5.26535,93.9039 4.5,96.5C 3.32496,96.281 2.32496,96.6143 1.5,97.5C 1.22231,100.067 1.05565,102.733 1,105.5C 0.617425,106.056 0.117425,106.389 -0.5,106.5C -0.5,99.5 -0.5,92.5 -0.5,85.5C 1.34372,83.8046 2.67706,81.8046 3.5,79.5 Z"/></g>
<g><path style="opacity:1" fill="#474747" d="M 30.5,87.5 C 33.415,90.6632 35.2483,94.3299 36,98.5C 33.6284,95.0901 31.7951,91.4234 30.5,87.5 Z"/></g>
<g><path style="opacity:1" fill="#212121" d="M 58.5,94.5 C 58.552,96.9029 58.2186,99.2362 57.5,101.5C 56.5416,101.953 55.7083,102.619 55,103.5C 53.0788,99.1579 53.2454,94.8245 55.5,90.5C 56.4584,90.0472 57.2917,89.3805 58,88.5C 58.1667,89 58.3333,89.5 58.5,90C 57.1113,92.9173 55.9447,95.7507 55,98.5C 56.4048,97.2695 57.5714,95.9361 58.5,94.5 Z"/></g>
<g><path style="opacity:1" fill="#383838" d="M 71.5,95.5 C 73.4663,96.2545 73.7996,97.4212 72.5,99C 75.9784,102.299 78.9784,105.966 81.5,110C 80.6804,112.914 79.6804,113.081 78.5,110.5C 78.7093,109.914 79.0426,109.414 79.5,109C 77.2616,106.257 74.595,104.091 71.5,102.5C 70.7103,100.384 70.7103,98.0511 71.5,95.5 Z"/></g>
<g><path style="opacity:1" fill="#595959" d="M 120.5,92.5 C 123.748,96.3297 125.915,100.663 127,105.5C 124.295,101.423 122.128,97.0901 120.5,92.5 Z"/></g>
<g><path style="opacity:1" fill="#3b3b3b" d="M 31.5,109.5 C 30.3478,108.375 29.3478,108.375 28.5,109.5C 27.7321,110.263 27.2321,111.263 27,112.5C 26.2917,111.619 25.4584,110.953 24.5,110.5C 22.5212,109.188 20.8545,107.521 19.5,105.5C 20.2435,102.557 20.7435,99.557 21,96.5C 22.746,100.327 24.746,103.993 27,107.5C 27.2492,106.376 27.7492,105.376 28.5,104.5C 30.2623,105.688 31.2623,107.355 31.5,109.5 Z"/></g>
<g><path style="opacity:1" fill="#1b1b1b" d="M -0.5,129.5 C -0.5,126.167 -0.5,122.833 -0.5,119.5C 0.793048,118.158 1.62638,116.491 2,114.5C 2.94456,108.467 3.7779,102.467 4.5,96.5C 5.11742,96.3893 5.61742,96.056 6,95.5C 6.29244,107.43 4.12578,118.763 -0.5,129.5 Z"/></g>
<g><path style="opacity:1" fill="#595959" d="M 4.5,96.5 C 3.7779,102.467 2.94456,108.467 2,114.5C 1.62638,116.491 0.793048,118.158 -0.5,119.5C -0.5,115.167 -0.5,110.833 -0.5,106.5C 0.117425,106.389 0.617425,106.056 1,105.5C 1.05565,102.733 1.22231,100.067 1.5,97.5C 2.32496,96.6143 3.32496,96.281 4.5,96.5 Z"/></g>
<g><path style="opacity:1" fill="#636363" d="M 35.5,104.5 C 36.4959,104.414 37.3292,104.748 38,105.5C 38.2734,107.101 38.7734,108.601 39.5,110C 36.194,109.959 34.8607,108.126 35.5,104.5 Z"/></g>
<g><path style="opacity:1" fill="#1d1d1d" d="M 31.5,109.5 C 32.6334,112.271 33.6334,115.104 34.5,118C 34.3829,120.616 33.0496,122.116 30.5,122.5C 30.4208,121.07 30.7542,119.736 31.5,118.5C 31.0623,117.494 30.3957,117.494 29.5,118.5C 28.5159,115.572 28.1826,112.572 28.5,109.5C 29.3478,108.375 30.3478,108.375 31.5,109.5 Z"/></g>
<g><path style="opacity:1" fill="#7d7d7d" d="M 28.5,109.5 C 28.1826,112.572 28.5159,115.572 29.5,118.5C 30.3957,117.494 31.0623,117.494 31.5,118.5C 30.7542,119.736 30.4208,121.07 30.5,122.5C 30.1667,122.5 29.8333,122.5 29.5,122.5C 27.8327,118.497 26.166,114.497 24.5,110.5C 25.4584,110.953 26.2917,111.619 27,112.5C 27.2321,111.263 27.7321,110.263 28.5,109.5 Z"/></g>
<g><path style="opacity:1" fill="#1b1b1b" d="M 10.5,120.5 C 10.1632,118.328 9.16325,116.495 7.5,115C 8.73243,111.61 9.56577,111.777 10,115.5C 11.1475,114.542 12.1475,114.875 13,116.5C 13.7975,118.259 13.6309,119.926 12.5,121.5C 11.8165,121.137 11.1499,120.804 10.5,120.5 Z"/></g>
<g><path style="opacity:1" fill="#515151" d="M 61.5,97.5 C 58.2527,99.738 58.2527,101.071 61.5,101.5C 60.3746,105.084 58.7079,108.418 56.5,111.5C 56.6667,112.167 56.8333,112.833 57,113.5C 58.5737,112.016 59.907,110.349 61,108.5C 61.1667,108.833 61.3333,109.167 61.5,109.5C 60.0143,112.146 58.3476,114.646 56.5,117C 56.8333,117.5 57.1667,118 57.5,118.5C 58.8524,117.482 59.8524,116.149 60.5,114.5C 60.8333,114.667 61.1667,114.833 61.5,115C 60.5939,116.699 60.2606,118.533 60.5,120.5C 59.5,120.5 58.5,120.5 57.5,120.5C 57.3433,121.873 57.51,123.207 58,124.5C 59.2639,124.64 60.4305,124.64 61.5,124.5C 60.2887,125.874 59.2887,127.374 58.5,129C 59.1476,130.44 59.4809,131.94 59.5,133.5C 58.7784,133.082 58.2784,132.416 58,131.5C 57.6411,134.544 56.9745,134.878 56,132.5C 55.1072,133.711 54.2739,133.711 53.5,132.5C 55.1205,130.261 54.7871,128.427 52.5,127C 52.8583,119.691 52.8583,112.525 52.5,105.5C 52.56,104.957 52.8933,104.624 53.5,104.5C 54.2508,105.376 54.7508,106.376 55,107.5C 55.6552,105.372 56.4886,103.372 57.5,101.5C 58.2186,99.2362 58.552,96.9029 58.5,94.5C 58.4614,93.2438 58.9614,92.2438 60,91.5C 61.3186,93.2495 61.8186,95.2495 61.5,97.5 Z"/></g>
<g><path style="opacity:1" fill="#191919" d="M 20.5,119.5 C 22.5089,121.378 22.8422,123.544 21.5,126C 22.7932,126.49 24.1266,126.657 25.5,126.5C 25.058,130.847 24.2247,131.18 23,127.5C 22.586,127.957 22.086,128.291 21.5,128.5C 20.1513,125.459 19.818,122.459 20.5,119.5 Z"/></g>
<g><path style="opacity:1" fill="#262626" d="M 96.5,103.5 C 96.7479,98.0129 96.7479,92.6796 96.5,87.5C 98.0586,81.9129 99.2253,76.2462 100,70.5C 100.333,74.8333 100.667,79.1667 101,83.5C 101.333,79.5 101.667,75.5 102,71.5C 102.333,76.1667 102.667,80.8333 103,85.5C 103.308,84.6919 103.808,84.0253 104.5,83.5C 105.645,84.7757 105.645,86.109 104.5,87.5C 105.247,87.7365 106.08,88.0698 107,88.5C 107.82,93.632 107.32,98.632 105.5,103.5C 105.667,104.167 105.833,104.833 106,105.5C 106.29,103.956 106.956,102.623 108,101.5C 110.154,109.588 111.654,117.755 112.5,126C 110.035,130.543 108.035,135.376 106.5,140.5C 106.667,141.167 106.833,141.833 107,142.5C 107.333,141.5 107.667,140.5 108,139.5C 108.318,141.061 109.151,142.228 110.5,143C 109.747,144.487 108.914,144.654 108,143.5C 107.333,145.5 106.667,147.5 106,149.5C 104.743,146.532 103.576,143.532 102.5,140.5C 104.872,136.924 106.872,133.091 108.5,129C 108.333,128.5 108.167,128 108,127.5C 106.587,130.661 104.92,133.661 103,136.5C 101.694,126.149 99.5273,115.149 96.5,103.5 Z"/></g>
<g><path style="opacity:1" fill="#202020" d="M 16.5,132.5 C 15.3855,129.823 15.3855,127.156 16.5,124.5C 17.8821,127.24 19.5488,129.74 21.5,132C 19.5961,135.288 18.4294,135.121 18,131.5C 17.6174,132.056 17.1174,132.389 16.5,132.5 Z"/></g>
<g><path style="opacity:1" fill="#1c1c1c" d="M 29.5,126.5 C 30.5,126.5 31.5,126.5 32.5,126.5C 32.8719,129.022 32.0386,131.022 30,132.5C 28.2002,130.635 28.0336,128.635 29.5,126.5 Z"/></g>
<g><path style="opacity:1" fill="#2c2c2c" d="M 10.5,120.5 C 10.955,122.367 11.6216,124.2 12.5,126C 11.7479,128.154 11.5812,130.32 12,132.5C 12.7985,128.576 13.2985,128.576 13.5,132.5C 13.245,136.07 12.245,136.403 10.5,133.5C 9.37391,129.914 7.70725,126.581 5.5,123.5C 6.14494,122.354 6.97827,121.354 8,120.5C 8.76971,121.598 9.60305,121.598 10.5,120.5 Z"/></g>
<g><path style="opacity:1" fill="#1b1b1b" d="M 25.5,130.5 C 27.0257,131.105 28.0257,132.271 28.5,134C 23.7047,136.039 22.7047,134.872 25.5,130.5 Z"/></g>
<g><path style="opacity:1" fill="#1f1f1f" d="M 10.5,133.5 C 10.5,134.833 10.5,136.167 10.5,137.5C 11.8333,137.5 13.1667,137.5 14.5,137.5C 14.3379,135.473 14.5045,133.473 15,131.5C 15.3826,132.056 15.8826,132.389 16.5,132.5C 16.67,133.822 16.3366,134.989 15.5,136C 16.9733,136.71 17.6399,137.876 17.5,139.5C 21.5776,138.863 25.4109,137.53 29,135.5C 29.1626,137.387 28.3293,138.887 26.5,140C 20.8779,143.207 14.8779,145.207 8.5,146C 7.74756,146.671 7.41423,147.504 7.5,148.5C 4.76275,148.599 2.09609,148.265 -0.5,147.5C -0.5,143.833 -0.5,140.167 -0.5,136.5C 0.479345,135.235 1.47934,133.901 2.5,132.5C 4.58718,135.673 6.42052,139.006 8,142.5C 8.66667,139.833 8.66667,137.167 8,134.5C 7.66667,135.167 7.33333,135.833 7,136.5C 6.08542,134.082 4.58542,132.082 2.5,130.5C 3.31485,128.724 4.48151,128.057 6,128.5C 6.33333,129.5 6.66667,130.5 7,131.5C 7.33333,131.167 7.66667,130.833 8,130.5C 8.23555,132.119 9.06888,133.119 10.5,133.5 Z"/></g>
<g><path style="opacity:1" fill="#4c4c4c" d="M 120.5,125.5 C 121.481,127.396 122.481,129.396 123.5,131.5C 122.833,131.833 122.167,132.167 121.5,132.5C 124.819,137.44 126.652,142.773 127,148.5C 125.607,144.714 123.941,141.048 122,137.5C 121.692,138.308 121.192,138.975 120.5,139.5C 118.554,136.914 118.554,134.581 120.5,132.5C 119.58,130.214 119.58,127.881 120.5,125.5 Z"/></g>
<g><path style="opacity:1" fill="#232323" d="M 40.5,131.5 C 41.4972,131.47 42.1639,131.97 42.5,133C 40.3786,135.345 39.212,138.179 39,141.5C 38.6667,140.833 38.3333,140.167 38,139.5C 37.8823,142.371 37.2156,145.038 36,147.5C 35.3333,144.5 35.3333,141.5 36,138.5C 37.7235,136.283 39.2235,133.95 40.5,131.5 Z"/></g>
<g><path style="opacity:1" fill="#353535" d="M 39.5,150.5 C 39.3398,148.801 39.5065,147.134 40,145.5C 40.8786,143.021 42.3786,141.021 44.5,139.5C 45.8333,141.167 45.8333,142.833 44.5,144.5C 42.8149,146.571 41.1482,148.571 39.5,150.5 Z"/></g>
<g><path style="opacity:1" fill="#242424" d="M 61.5,97.5 C 61.8333,97.5 62.1667,97.5 62.5,97.5C 62.8137,100.877 63.8137,104.044 65.5,107C 65.0496,108.285 64.3829,109.452 63.5,110.5C 63.9377,111.506 64.6043,111.506 65.5,110.5C 66.724,112.828 66.724,115.161 65.5,117.5C 65.8457,118.696 66.3457,118.696 67,117.5C 67.584,122.585 68.584,127.585 70,132.5C 70.1688,147.006 70.6688,161.339 71.5,175.5C 71.5,176.167 71.5,176.833 71.5,177.5C 70.4829,182.978 69.8163,188.644 69.5,194.5C 70.7787,200.664 70.7787,206.831 69.5,213C 70.225,226.544 71.3917,240.044 73,253.5C 73.1331,264.817 73.2998,275.817 73.5,286.5C 72.192,289.73 71.192,293.064 70.5,296.5C 68.5201,294.205 67.3534,291.539 67,288.5C 66,288.5 65,288.5 64,288.5C 61.395,285.718 59.0617,282.051 57,277.5C 55.9524,270.885 55.1191,264.218 54.5,257.5C 53.7189,258.729 53.2189,260.062 53,261.5C 50.772,253.123 48.4386,244.789 46,236.5C 45.3457,235.304 44.8457,235.304 44.5,236.5C 47.1225,246.948 50.1225,257.281 53.5,267.5C 53.1543,268.696 52.6543,268.696 52,267.5C 51.1853,265.377 50.1853,263.377 49,261.5C 45.3333,249.5 41.6667,237.5 38,225.5C 37.1281,218.706 37.6281,212.039 39.5,205.5C 43.087,199.018 46.087,192.851 48.5,187C 48.0548,185.553 47.3881,184.22 46.5,183C 46.6301,181.941 47.1301,181.108 48,180.5C 47.7622,172.886 48.9289,165.552 51.5,158.5C 47.9451,156.271 47.6118,153.604 50.5,150.5C 49.2361,146.521 49.2361,142.521 50.5,138.5C 50.3333,137.833 50.1667,137.167 50,136.5C 49.3661,140.585 48.1994,141.085 46.5,138C 48.0696,136.175 49.403,134.009 50.5,131.5C 49.2117,128.966 49.2117,126.466 50.5,124C 50.1667,123.833 49.8333,123.667 49.5,123.5C 48.8333,124.5 48.1667,125.5 47.5,126.5C 47.5136,121.157 49.0136,116.157 52,111.5C 52.4955,109.527 52.6621,107.527 52.5,105.5C 52.8583,112.525 52.8583,119.691 52.5,127C 54.7871,128.427 55.1205,130.261 53.5,132.5C 54.2739,133.711 55.1072,133.711 56,132.5C 56.9745,134.878 57.6411,134.544 58,131.5C 58.2784,132.416 58.7784,133.082 59.5,133.5C 59.4809,131.94 59.1476,130.44 58.5,129C 59.2887,127.374 60.2887,125.874 61.5,124.5C 60.4305,124.64 59.2639,124.64 58,124.5C 57.51,123.207 57.3433,121.873 57.5,120.5C 58.5,120.5 59.5,120.5 60.5,120.5C 60.2606,118.533 60.5939,116.699 61.5,115C 61.1667,114.833 60.8333,114.667 60.5,114.5C 59.8524,116.149 58.8524,117.482 57.5,118.5C 57.1667,118 56.8333,117.5 56.5,117C 58.3476,114.646 60.0143,112.146 61.5,109.5C 61.3333,109.167 61.1667,108.833 61,108.5C 59.907,110.349 58.5737,112.016 57,113.5C 56.8333,112.833 56.6667,112.167 56.5,111.5C 58.7079,108.418 60.3746,105.084 61.5,101.5C 58.2527,101.071 58.2527,99.738 61.5,97.5 Z"/></g>
<g><path style="opacity:1" fill="#5f5f5f" d="M 59.5,133.5 C 62.0692,139.348 64.5692,145.348 67,151.5C 67.6667,152.5 67.6667,153.5 67,154.5C 64.3333,149.833 61.6667,145.167 59,140.5C 58.4202,137.453 58.7535,137.119 60,139.5C 60.1805,137.512 60.0138,135.512 59.5,133.5 Z"/></g>
<g><path style="opacity:1" fill="#606060" d="M 53.5,137.5 C 54.3091,139.292 54.8091,141.292 55,143.5C 56.0437,142.377 56.7104,141.044 57,139.5C 57.8255,142.602 56.8255,144.936 54,146.5C 53.5,145.5 53,144.5 52.5,143.5C 53.3482,141.591 53.6816,139.591 53.5,137.5 Z"/></g>
<g><path style="opacity:1" fill="#262626" d="M 39.5,150.5 C 39.369,151.239 39.5357,151.906 40,152.5C 41.6667,151.5 43,150.167 44,148.5C 44.1667,150.167 44.3333,151.833 44.5,153.5C 44.079,156.865 43.2456,159.865 42,162.5C 42.5885,160.137 44.0885,159.137 46.5,159.5C 46.4139,161.677 45.7472,163.677 44.5,165.5C 44.8457,166.696 45.3457,166.696 46,165.5C 46.8962,170.949 46.5628,176.282 45,181.5C 41.9828,180.283 40.4828,181.45 40.5,185C 40.6667,186.167 40.8333,187.333 41,188.5C 41.2022,186.744 41.7022,185.078 42.5,183.5C 42.8333,184 43.1667,184.5 43.5,185C 41.9995,191.843 40.6662,198.676 39.5,205.5C 38.065,207.598 36.8984,209.931 36,212.5C 33.2981,191.508 32.9648,170.508 35,149.5C 35.7175,148.549 36.5509,148.383 37.5,149C 35.8399,151.633 35.3399,154.466 36,157.5C 36.7285,154.813 37.8951,152.48 39.5,150.5 Z"/></g>
<g><path style="opacity:1" fill="#474747" d="M 132.5,161.5 C 131.952,163.626 131.285,165.626 130.5,167.5C 129.883,167.611 129.383,167.944 129,168.5C 126.924,165.783 126.257,162.783 127,159.5C 128.131,160.604 128.965,160.271 129.5,158.5C 128.471,158.704 127.471,158.204 126.5,157C 127.516,156.481 128.182,155.647 128.5,154.5C 126.825,150.78 127.325,150.114 130,152.5C 130.204,155.797 131.037,158.797 132.5,161.5 Z"/></g>
<g><path style="opacity:1" fill="#4c4c4c" d="M 96.5,187.5 C 95.9569,187.44 95.6236,187.107 95.5,186.5C 96.1667,185.833 96.8333,185.167 97.5,184.5C 95.9263,183.016 94.593,181.349 93.5,179.5C 92.6143,180.325 92.281,181.325 92.5,182.5C 91.6236,182.369 90.9569,182.702 90.5,183.5C 91.6446,184.891 91.6446,186.224 90.5,187.5C 87.7154,180.128 85.7154,172.461 84.5,164.5C 84.6667,163.833 84.8333,163.167 85,162.5C 86.3893,166.272 87.3893,166.272 88,162.5C 88.6667,161.167 89.3333,161.167 90,162.5C 90.7203,164.112 90.5536,165.612 89.5,167C 91.3632,168.418 91.8632,170.251 91,172.5C 90.3333,171.167 89.6667,169.833 89,168.5C 86.0623,174.128 87.5623,176.128 93.5,174.5C 93.3505,173.448 93.5172,172.448 94,171.5C 95.7184,173.202 95.885,175.035 94.5,177C 95.4162,177.374 96.2496,177.874 97,178.5C 96.8047,176.874 96.8047,175.207 97,173.5C 98.9637,175.853 99.4637,178.353 98.5,181C 99.207,183.543 100.54,185.709 102.5,187.5C 102.333,187.833 102.167,188.167 102,188.5C 100.358,185.232 98.5251,184.899 96.5,187.5 Z"/></g>
<g><path style="opacity:1" fill="#676767" d="M 53.5,173.5 C 54.6225,180.032 55.7892,186.698 57,193.5C 60.6656,200.492 63.9989,207.492 67,214.5C 62.9173,207.332 58.5839,200.332 54,193.5C 53.5004,186.842 53.3337,180.175 53.5,173.5 Z"/></g>
<g><path style="opacity:1" fill="#313131" d="M 108.5,186.5 C 110.837,188.847 112.837,191.514 114.5,194.5C 113.675,195.386 112.675,195.719 111.5,195.5C 111.023,192.345 110.023,189.345 108.5,186.5 Z"/></g>
<g><path style="opacity:1" fill="#303030" d="M 96.5,187.5 C 97.4151,189.754 98.7484,191.754 100.5,193.5C 99.7376,193.911 98.7376,194.077 97.5,194C 99.604,196.042 100.771,198.542 101,201.5C 102.685,203.017 104.185,204.684 105.5,206.5C 104.478,207.354 103.645,208.354 103,209.5C 101,204.833 99,200.167 97,195.5C 95.0876,194.308 93.0876,193.308 91,192.5C 90.2262,188.485 90.7262,187.985 92.5,191C 93.4162,191.374 94.2496,191.874 95,192.5C 95.0481,190.456 94.5481,188.456 93.5,186.5C 94.4212,184.969 94.0878,183.635 92.5,182.5C 92.281,181.325 92.6143,180.325 93.5,179.5C 94.593,181.349 95.9263,183.016 97.5,184.5C 96.8333,185.167 96.1667,185.833 95.5,186.5C 95.6236,187.107 95.9569,187.44 96.5,187.5 Z"/></g>
<g><path style="opacity:1" fill="#393939" d="M 103.5,188.5 C 105.129,189.625 106.629,190.959 108,192.5C 109.166,196.996 111,201.162 113.5,205C 112.833,205.667 112.167,205.667 111.5,205C 110.274,203.365 108.941,201.865 107.5,200.5C 107.167,200.833 106.833,201.167 106.5,201.5C 108.124,202.869 108.624,204.536 108,206.5C 105.991,204.457 103.991,202.457 102,200.5C 101.333,199.833 101.333,199.167 102,198.5C 102.654,199.696 103.154,199.696 103.5,198.5C 102.071,196.669 101.571,194.669 102,192.5C 103,193.5 104,194.5 105,195.5C 106.985,193.765 106.651,192.432 104,191.5C 103.517,190.552 103.351,189.552 103.5,188.5 Z"/></g>
<g><path style="opacity:1" fill="#5f5f5f" d="M 53.5,199.5 C 54.4286,200.936 55.5952,202.269 57,203.5C 57.6667,208.5 57.6667,213.5 57,218.5C 56.6667,217.167 56.3333,215.833 56,214.5C 55.8333,215.5 55.6667,216.5 55.5,217.5C 57.1571,224.441 57.9904,231.441 58,238.5C 54.6171,225.742 53.1171,212.742 53.5,199.5 Z"/></g>
<g><path style="opacity:1" fill="#212121" d="M 111.5,206.5 C 113.982,207.804 115.149,209.804 115,212.5C 112.735,211.084 111.569,209.084 111.5,206.5 Z"/></g>
<g><path style="opacity:1" fill="#3d3d3d" d="M 128.5,204.5 C 128.897,203.475 129.563,203.308 130.5,204C 131.516,205.677 132.516,207.343 133.5,209C 132.494,210.338 131.494,211.671 130.5,213C 132.075,212.621 133.575,212.788 135,213.5C 134.418,215.988 134.752,218.321 136,220.5C 132.446,216.946 128.946,213.446 125.5,210C 131.867,210.845 132.867,209.011 128.5,204.5 Z"/></g>
<g><path style="opacity:1" fill="#464646" d="M 116.5,206.5 C 120.395,206.903 122.729,209.403 123.5,214C 123.167,214.333 122.833,214.667 122.5,215C 125.654,217.775 126.154,220.942 124,224.5C 121.072,222.582 119.406,219.915 119,216.5C 118.667,217.167 118.333,217.833 118,218.5C 116.513,217.845 115.347,216.845 114.5,215.5C 115.274,214.289 116.107,214.289 117,215.5C 117.402,214.128 117.902,212.795 118.5,211.5C 117.544,209.925 116.877,208.258 116.5,206.5 Z"/></g>
<g><path style="opacity:1" fill="#646464" d="M 47.5,200.5 C 50.9992,213.515 53.1659,226.848 54,240.5C 52.1939,234.158 50.1939,227.825 48,221.5C 47.5,218 47,214.5 46.5,211C 46.961,207.471 47.2944,203.971 47.5,200.5 Z"/></g>
<g><path style="opacity:1" fill="#636363" d="M 58.5,210.5 C 59.1174,210.611 59.6174,210.944 60,211.5C 60.2491,218.575 61.0825,225.575 62.5,232.5C 62.1667,233.167 61.8333,233.833 61.5,234.5C 59.0459,229.761 57.8793,224.761 58,219.5C 59.0034,221.935 59.5034,221.602 59.5,218.5C 58.9049,215.86 58.5715,213.193 58.5,210.5 Z"/></g>
<g><path style="opacity:1" fill="#2a2a2a" d="M 109.5,213.5 C 111.074,213.937 112.241,214.937 113,216.5C 114.118,219.855 115.618,223.022 117.5,226C 116.551,226.617 115.718,226.451 115,225.5C 112.726,221.678 110.892,217.678 109.5,213.5 Z"/></g>
<g><path style="opacity:1" fill="#202020" d="M 116.5,219.5 C 119.221,220.696 120.387,222.696 120,225.5C 118.053,223.937 116.886,221.937 116.5,219.5 Z"/></g>
<g><path style="opacity:1" fill="#373737" d="M 132.5,227.5 C 130.482,226.067 128.815,226.401 127.5,228.5C 126.972,227.279 126.305,226.113 125.5,225C 126.449,224.383 127.282,224.549 128,225.5C 128,224.167 128,222.833 128,221.5C 130.48,222.807 131.98,224.807 132.5,227.5 Z"/></g>
<g><path style="opacity:1" fill="#6d6d6d" d="M 132.5,227.5 C 132.859,229.371 133.859,230.871 135.5,232C 133.248,231.95 131.582,230.784 130.5,228.5C 130.167,228.833 129.833,229.167 129.5,229.5C 131.662,231.86 133.662,234.193 135.5,236.5C 131.495,235.144 128.828,232.477 127.5,228.5C 128.815,226.401 130.482,226.067 132.5,227.5 Z"/></g>
<g><path style="opacity:1" fill="#3f3f3f" d="M 127.5,228.5 C 128.828,232.477 131.495,235.144 135.5,236.5C 135.741,239.999 134.908,240.332 133,237.5C 132.833,237.833 132.667,238.167 132.5,238.5C 133.833,239.62 134.333,240.953 134,242.5C 132.038,239.43 129.538,237.93 126.5,238C 126.043,237.586 125.709,237.086 125.5,236.5C 126.665,235.416 127.998,234.583 129.5,234C 126.014,232.54 124.181,230.04 124,226.5C 124.816,227.823 125.983,228.489 127.5,228.5 Z"/></g>
<g><path style="opacity:1" fill="#2e2e2e" d="M 135.5,236.5 C 133.662,234.193 131.662,231.86 129.5,229.5C 129.833,229.167 130.167,228.833 130.5,228.5C 131.582,230.784 133.248,231.95 135.5,232C 133.859,230.871 132.859,229.371 132.5,227.5C 133.598,226.399 133.765,225.066 133,223.5C 130.591,221.691 129.591,219.358 130,216.5C 131.188,217.563 131.688,218.897 131.5,220.5C 132.552,220.351 133.552,220.517 134.5,221C 138.254,224.85 141.92,228.683 145.5,232.5C 145.192,233.308 144.692,233.975 144,234.5C 141.997,232.137 139.83,230.304 137.5,229C 139.027,232.138 140.027,235.471 140.5,239C 139.577,242.256 140.244,242.756 142.5,240.5C 145.364,249.077 143.864,249.744 138,242.5C 137.316,241.216 137.483,240.049 138.5,239C 137.627,237.955 136.627,237.122 135.5,236.5 Z"/></g>
<g><path style="opacity:1" fill="#696969" d="M 49.5,236.5 C 52.965,240.826 54.1316,245.826 53,251.5C 51.9859,246.445 50.8193,241.445 49.5,236.5 Z"/></g>
<g><path style="opacity:1" fill="#232323" d="M 137.5,244.5 C 139.107,246.74 141.273,248.406 144,249.5C 144.667,250.167 144.667,250.833 144,251.5C 140.911,250.04 138.078,248.207 135.5,246C 136.416,245.722 137.082,245.222 137.5,244.5 Z"/></g>
</svg>
