<svg version="1.1" xmlns="http://www.w3.org/2000/svg" xmlns:xlink="http://www.w3.org/1999/xlink" width="752.000000pt" height="584.000000pt" viewBox="0,0,256,198.79688"><g fill="#ffffff" fill-rule="nonzero" stroke="none" stroke-width="1" stroke-linecap="butt" stroke-linejoin="miter" stroke-miterlimit="10" stroke-dasharray="" stroke-dashoffset="0" font-family="none" font-weight="none" font-size="none" text-anchor="none" style="mix-blend-mode: normal"><g transform="translate(4.61547,12.87235) scale(0.34043,0.34043)"><g transform="translate(0,584) scale(0.1,-0.1)"><path d="M2905,5340c-356,-35 -633,-165 -814,-385c-155,-187 -235,-411 -248,-696c-7,-158 -1,-147 -108,-204c-38,-21 -104,-63 -145,-95c-155,-117 -226,-248 -224,-415c0,-78 5,-100 32,-165c61,-144 201,-292 395,-418c186,-120 154,-72 312,-467c105,-263 145,-351 158,-353c10,-2 53,5 95,17c136,36 545,105 827,140c352,44 539,55 900,56c436,0 661,-23 988,-100c155,-36 143,-43 151,77c6,101 41,444 51,505c5,26 20,41 92,90c173,115 334,294 419,463c78,157 111,370 85,560c-59,442 -405,779 -827,807c-160,10 -305,-24 -549,-129c-133,-58 -284,-111 -299,-105c-8,3 -24,37 -36,74c-11,37 -45,118 -75,178c-122,244 -310,402 -589,493c-178,59 -421,89 -591,72zM3210,5135c286,-37 480,-134 619,-310c67,-84 108,-165 145,-286c32,-104 32,-123 4,-143c-37,-26 -201,-75 -352,-106c-248,-51 -306,-57 -806,-86c-281,-16 140,-49 520,-41c267,6 431,25 590,68c176,48 380,116 591,199c289,114 347,130 469,130c200,0 346,-65 490,-217c137,-144 204,-316 205,-523c0,-145 -21,-240 -79,-353c-88,-172 -222,-308 -414,-421c-44,-26 -86,-54 -93,-62c-7,-8 -16,-59 -20,-112c-18,-218 -38,-385 -48,-395c-8,-8 -45,-4 -128,11c-268,50 -454,65 -803,65c-495,-1 -1071,-59 -1564,-159c-65,-13 -129,-24 -142,-24c-28,0 -48,35 -105,185c-21,55 -54,138 -75,185c-47,109 -48,128 -7,151c32,18 159,62 263,92c136,39 378,76 627,98c95,8 675,20 962,19c35,0 -4,12 -97,30c-55,10 -212,29 -349,41c-536,47 -1090,-4 -1441,-132c-82,-30 -109,-26 -194,30c-306,199 -418,332 -418,493c0,94 32,150 134,236c56,47 184,116 284,152l62,23v177c0,356 64,544 250,730c52,52 115,106 140,119c112,59 141,72 216,95c70,22 148,38 239,49c74,9 220,6 325,-8z"></path><path d="M452,2288c-26,-26 -9,-38 106,-73c64,-20 135,-43 157,-50c93,-33 408,-117 650,-175c432,-103 458,-110 520,-144c77,-42 110,-95 109,-176c-1,-116 -72,-211 -169,-226c-78,-11 -271,38 -425,108c-36,17 -88,39 -116,49c-81,31 -553,268 -724,364c-85,48 -166,93 -179,101c-30,16 -41,10 -41,-21c0,-25 64,-79 275,-230c636,-457 1083,-632 1375,-539c84,26 132,63 200,152l25,33l80,-17c375,-77 889,-143 1230,-159c66,-3 278,-10 470,-15c193,-5 436,-12 540,-16c105,-3 359,-1 565,6c206,7 616,15 910,20c570,8 583,9 697,61c66,30 147,110 173,171c86,201 -29,514 -230,623c-51,28 -62,30 -155,29c-134,-1 -210,-31 -396,-155c-220,-147 -538,-281 -899,-379c-431,-117 -882,-180 -1289,-180c-388,0 -1012,59 -1376,129c-60,12 -146,29 -189,37c-44,8 -85,19 -92,25c-6,5 -14,28 -18,52c-18,119 -79,208 -195,286c-136,92 -498,170 -1286,276c-104,14 -209,30 -233,35c-53,13 -55,13 -70,-2zM6533,1866c18,-7 45,-28 60,-45c90,-107 -1,-270 -151,-271c-53,0 -89,18 -132,66c-30,35 -32,41 -28,98c3,45 10,71 27,95c44,62 149,89 224,57z"></path></g></g></g></svg>